<svg width="500" height="500" viewBox="0 0 500 500" fill="none" xmlns="http://www.w3.org/2000/svg">
<path d="M184.102 76.8691H406.451C427.741 76.8691 445 94.128 445 115.418V356.686V394.451C445 415.741 427.741 433 406.451 433H316.749H77.3467" stroke="white" stroke-width="20" stroke-linecap="round"/>
<path d="M178.107 76.8691H239.798V420.722" stroke="white" stroke-width="20" stroke-linecap="round"/>
<path d="M314.587 374.437H383.685M314.587 146.017H383.685M314.587 258.864H383.685" stroke="white" stroke-width="20" stroke-linecap="round"/>
<line x1="351.178" y1="208.238" x2="351.178" y2="192.979" stroke="white" stroke-width="20" stroke-linecap="round"/>
<line x1="351.178" y1="323.91" x2="351.178" y2="308.651" stroke="white" stroke-width="20" stroke-linecap="round"/>
<path d="M170.085 147.274C170.085 177.465 145.405 201.94 114.962 201.94C84.5186 201.94 59.8394 177.465 59.8394 147.274C59.8394 117.082 84.5186 92.6074 114.962 92.6074C145.405 92.6074 170.085 117.082 170.085 147.274ZM84.687 147.274C84.687 163.856 98.2416 177.298 114.962 177.298C131.682 177.298 145.237 163.856 145.237 147.274C145.237 130.692 131.682 117.249 114.962 117.249C98.2416 117.249 84.687 130.692 84.687 147.274Z" fill="white"/>
<rect x="104.496" y="76" width="26.5147" height="22.1433" rx="3.33333" fill="white"/>
<rect x="104.496" y="196.404" width="26.5147" height="22.1433" rx="3.33333" fill="white"/>
<rect width="26.4052" height="22.2359" rx="3.33333" transform="matrix(0.71004 -0.704162 0.71004 0.704162 54.9551 103.589)" fill="white"/>
<rect width="26.4052" height="22.2359" rx="3.33333" transform="matrix(0.71004 -0.704162 0.71004 0.704162 142.175 192.162)" fill="white"/>
<rect x="187.528" y="134.126" width="26.2952" height="22.3282" rx="3.33333" transform="rotate(90 187.528 134.126)" fill="white"/>
<rect x="63.3281" y="134.126" width="26.2952" height="22.3282" rx="3.33333" transform="rotate(90 63.3281 134.126)" fill="white"/>
<rect width="26.4052" height="22.2359" rx="3.33333" transform="matrix(0.71004 0.704162 -0.71004 0.704162 157.963 87.0723)" fill="white"/>
<rect width="26.4052" height="22.2359" rx="3.33333" transform="matrix(0.71004 0.704162 -0.71004 0.704162 70.7437 173.569)" fill="white"/>
<path d="M195.379 271.656C195.379 294.3 176.869 312.656 154.037 312.656C131.204 312.656 112.695 294.3 112.695 271.656C112.695 249.012 131.204 230.656 154.037 230.656C176.869 230.656 195.379 249.012 195.379 271.656ZM131.331 271.656C131.331 284.093 141.496 294.174 154.037 294.174C166.577 294.174 176.743 284.093 176.743 271.656C176.743 259.219 166.577 249.138 154.037 249.138C141.496 249.138 131.331 259.219 131.331 271.656Z" fill="white"/>
<rect x="146.187" y="218.201" width="19.886" height="16.6075" rx="2.5" fill="white"/>
<rect x="146.187" y="308.504" width="19.886" height="16.6075" rx="2.5" fill="white"/>
<rect width="19.8039" height="16.677" rx="2.5" transform="matrix(0.71004 -0.704162 0.71004 0.704162 109.032 238.894)" fill="white"/>
<rect width="19.8039" height="16.677" rx="2.5" transform="matrix(0.71004 -0.704162 0.71004 0.704162 174.446 305.323)" fill="white"/>
<rect x="208.461" y="261.796" width="19.7214" height="16.7461" rx="2.5" transform="rotate(90 208.461 261.796)" fill="white"/>
<rect x="115.311" y="261.796" width="19.7214" height="16.7461" rx="2.5" transform="rotate(90 115.311 261.796)" fill="white"/>
<rect width="19.8039" height="16.677" rx="2.5" transform="matrix(0.71004 0.704162 -0.71004 0.704162 186.287 226.505)" fill="white"/>
<rect width="19.8039" height="16.677" rx="2.5" transform="matrix(0.71004 0.704162 -0.71004 0.704162 120.873 291.378)" fill="white"/>
</svg>
