<svg width="500" height="500" viewBox="0 0 500 500" fill="none" xmlns="http://www.w3.org/2000/svg">
<g clip-path="url(#clip0)">
<path d="M477.768 86.4344L450.05 104.724L449.01 69.3308L477.768 86.4344Z" fill="white"/>
<path d="M477.891 213.604L450.173 231.894L449.133 196.501L477.891 213.604Z" fill="white"/>
<path d="M477.768 340.775L450.05 359.065L449.01 323.672L477.768 340.775Z" fill="white"/>
<path d="M248.172 163.388C293.661 163.388 330.537 150.938 330.537 135.58C330.537 120.222 293.661 107.771 248.172 107.771C202.683 107.771 165.807 120.222 165.807 135.58C165.807 150.938 202.683 163.388 248.172 163.388Z" stroke="white" stroke-width="22.7608" stroke-linecap="round" stroke-linejoin="round"/>
<path d="M330.537 220.064C330.537 235.598 293.93 248.137 248.172 248.137C202.413 248.137 165.807 235.598 165.807 220.064" stroke="white" stroke-width="22.7608" stroke-linecap="round" stroke-linejoin="round"/>
<path d="M330.537 177.688C330.537 193.222 293.93 205.761 248.172 205.761C202.413 205.761 165.807 193.222 165.807 177.688" stroke="white" stroke-width="22.7608" stroke-linecap="round" stroke-linejoin="round"/>
<path d="M165.807 135.845V265.834C165.807 281.247 202.911 295.278 248.681 295.278C294.451 295.278 331.066 282.836 331.066 267.423L330.578 135.845" stroke="white" stroke-width="22.7608" stroke-linecap="round" stroke-linejoin="round"/>
<circle cx="425.516" cy="86.1183" r="8.39472" fill="white"/>
<circle cx="425.757" cy="211.775" r="8.39472" fill="white"/>
<circle cx="424.587" cy="340.34" r="8.39472" fill="white"/>
<circle cx="385.843" cy="340.802" r="8.39472" fill="white"/>
<circle cx="385.965" cy="212.119" r="8.39472" fill="white"/>
<circle cx="386.77" cy="86.1183" r="8.39472" fill="white"/>
<circle cx="351.095" cy="212.119" r="8.39472" fill="white"/>
<circle cx="385.843" cy="169.076" r="8.39472" fill="white"/>
<circle cx="386.77" cy="127.305" r="8.39472" fill="white"/>
<circle cx="385.843" cy="298.103" r="8.39472" fill="white"/>
<circle cx="385.843" cy="255.403" r="8.39472" fill="white"/>
<circle r="8.40886" transform="matrix(-1 0 0 1 67.4671 86.4762)" fill="white"/>
<circle r="8.40886" transform="matrix(-1 0 0 1 29.4085 86.4762)" fill="white"/>
<circle r="8.40886" transform="matrix(-1 0 0 1 29.4085 211.789)" fill="white"/>
<circle r="8.40886" transform="matrix(-1 0 0 1 29.4085 340.816)" fill="white"/>
<circle r="8.40886" transform="matrix(-1 0 0 1 63.7542 211.789)" fill="white"/>
<circle r="8.40886" transform="matrix(-1 0 0 1 63.7542 340.967)" fill="white"/>
<circle r="8.40886" transform="matrix(-1 0 0 1 102.564 340.816)" fill="white"/>
<circle r="8.40886" transform="matrix(-1 0 0 1 102.564 211.714)" fill="white"/>
<circle r="8.40886" transform="matrix(-1 0 0 1 102.564 86.4762)" fill="white"/>
<circle r="8.40886" transform="matrix(-1 0 0 1 139.87 211.789)" fill="white"/>
<circle r="8.40886" transform="matrix(-1 0 0 1 102.741 169.09)" fill="white"/>
<circle r="8.40886" transform="matrix(-1 0 0 1 102.741 127.319)" fill="white"/>
<circle r="8.40886" transform="matrix(-1 0 0 1 102.741 298.117)" fill="white"/>
<circle r="8.40886" transform="matrix(-1 0 0 1 102.741 255.417)" fill="white"/>
<line x1="256.716" y1="379.338" x2="256.716" y2="331.957" stroke="white" stroke-width="9.32432" stroke-linecap="round"/>
<line x1="256.716" y1="379.338" x2="256.716" y2="331.957" stroke="white" stroke-width="9.32432" stroke-linecap="round"/>
<line x1="256.716" y1="379.338" x2="256.716" y2="331.957" stroke="white" stroke-width="9.32432" stroke-linecap="round"/>
<line x1="256.716" y1="379.338" x2="256.716" y2="331.957" stroke="white" stroke-width="9.32432" stroke-linecap="round"/>
<line x1="256.716" y1="379.338" x2="256.716" y2="331.957" stroke="white" stroke-width="9.32432" stroke-linecap="round"/>
<line x1="256.716" y1="379.338" x2="256.716" y2="331.957" stroke="white" stroke-width="9.32432" stroke-linecap="round"/>
<line x1="256.716" y1="379.338" x2="256.716" y2="331.957" stroke="white" stroke-width="9.32432" stroke-linecap="round"/>
<line x1="234.338" y1="354.376" x2="234.338" y2="319.662" stroke="white" stroke-width="9.32432" stroke-linecap="round"/>
<line x1="234.338" y1="354.376" x2="234.338" y2="319.662" stroke="white" stroke-width="9.32432" stroke-linecap="round"/>
<line x1="234.338" y1="354.376" x2="234.338" y2="319.662" stroke="white" stroke-width="9.32432" stroke-linecap="round"/>
<line x1="234.338" y1="354.376" x2="234.338" y2="319.662" stroke="white" stroke-width="9.32432" stroke-linecap="round"/>
<line x1="234.338" y1="354.376" x2="234.338" y2="319.662" stroke="white" stroke-width="9.32432" stroke-linecap="round"/>
<line x1="234.338" y1="354.376" x2="234.338" y2="319.662" stroke="white" stroke-width="9.32432" stroke-linecap="round"/>
<line x1="234.338" y1="354.376" x2="234.338" y2="319.662" stroke="white" stroke-width="9.32432" stroke-linecap="round"/>
<path d="M345.424 416.658L360.667 425.247H359.267H351.595L351.838 432.916L354.197 507.342H157.457V447.81V440.377V428.282H150.024H144.571L163.294 416.658H345.424ZM137.064 432.944L142.591 429.512V432.944H137.064Z" stroke="white" stroke-width="14.8663"/>
</g>
<defs>
<clipPath id="clip0">
<rect width="500" height="500" fill="white"/>
</clipPath>
</defs>
</svg>
