<svg width="1236" height="792" viewBox="0 0 1236 792" fill="none" xmlns="http://www.w3.org/2000/svg">
<g clip-path="url(#clip0)">
<rect width="1236" height="792" fill="url(#paint0_linear)"/>
<path d="M798.224 313.554L806.86 298.691L789.024 299.365L798.224 313.554ZM622.235 197.432C623.226 197.268 624.231 197.097 625.249 196.92L624.752 194.061C623.742 194.237 622.746 194.406 621.765 194.568L622.235 197.432ZM631.339 195.824C633.324 195.457 635.349 195.076 637.41 194.687L636.866 191.836C634.806 192.225 632.786 192.606 630.808 192.971L631.339 195.824ZM643.471 193.544C645.465 193.17 647.486 192.794 649.53 192.422L649.009 189.568C646.956 189.941 644.929 190.318 642.931 190.693L643.471 193.544ZM655.593 191.347C657.598 191.002 659.622 190.665 661.661 190.34L661.211 187.474C659.156 187.801 657.118 188.14 655.101 188.488L655.593 191.347ZM667.737 189.421C669.752 189.134 671.778 188.863 673.812 188.613L673.478 185.73C671.421 185.983 669.373 186.257 667.339 186.547L667.737 189.421ZM679.901 187.932C681.93 187.729 683.964 187.551 686 187.402L685.827 184.503C683.76 184.655 681.697 184.836 679.642 185.041L679.901 187.932ZM692.102 187.045C694.137 186.957 696.172 186.902 698.201 186.885L698.24 183.978C696.171 183.995 694.099 184.051 692.028 184.14L692.102 187.045ZM704.288 186.948C706.318 187.009 708.341 187.112 710.353 187.26L710.662 184.362C708.6 184.209 706.53 184.104 704.454 184.042L704.288 186.948ZM716.382 187.851C718.387 188.099 720.378 188.397 722.351 188.75L722.992 185.893C720.958 185.529 718.909 185.222 716.849 184.968L716.382 187.851ZM728.233 189.982C730.177 190.452 732.1 190.981 733.999 191.574L735.03 188.813C733.062 188.198 731.072 187.65 729.063 187.165L728.233 189.982ZM739.615 193.547C741.452 194.267 743.263 195.055 745.045 195.915L746.501 193.321C744.647 192.427 742.764 191.608 740.856 190.86L739.615 193.547ZM750.249 198.681C751.921 199.657 753.565 200.705 755.176 201.829L757.05 199.48C755.372 198.31 753.661 197.218 751.919 196.201L750.249 198.681ZM759.806 205.347C761.277 206.561 762.717 207.848 764.124 209.211L766.363 207.162C764.901 205.745 763.403 204.407 761.872 203.143L759.806 205.347ZM768.124 213.399C769.377 214.816 770.599 216.303 771.788 217.863L774.312 216.134C773.082 214.52 771.816 212.98 770.516 211.51L768.124 213.399ZM775.092 222.519C776.126 224.083 777.129 225.711 778.102 227.406L780.828 225.982C779.827 224.238 778.793 222.559 777.726 220.945L775.092 222.519ZM780.83 232.506C781.655 234.16 782.453 235.87 783.222 237.638L786.085 236.486C785.297 234.675 784.479 232.921 783.633 231.224L780.83 232.506ZM785.39 242.972C786.05 244.716 786.686 246.511 787.295 248.359L790.248 247.442C789.626 245.558 788.978 243.725 788.303 241.943L785.39 242.972ZM788.975 253.823C789.492 255.632 789.986 257.487 790.456 259.389L793.467 258.672C792.989 256.738 792.486 254.851 791.959 253.01L788.975 253.823ZM791.73 264.941C792.122 266.787 792.493 268.675 792.841 270.605L795.888 270.057C795.534 268.1 795.158 266.185 794.76 264.311L791.73 264.941ZM793.777 276.237C794.061 278.099 794.325 279.998 794.569 281.934L797.638 281.53C797.39 279.57 797.123 277.648 796.836 275.763L793.777 276.237ZM795.222 287.662C795.412 289.523 795.585 291.417 795.74 293.344L798.821 293.061C798.665 291.115 798.49 289.202 798.298 287.321L795.222 287.662ZM796.149 299.198C796.26 301.046 796.355 302.922 796.433 304.829L799.521 304.652C799.441 302.729 799.346 300.836 799.234 298.971L796.149 299.198ZM798.224 313.554L815.495 283.828L779.823 285.177L798.224 313.554ZM622.469 198.863C623.466 198.699 624.476 198.527 625.498 198.349L624.504 192.632C623.498 192.807 622.506 192.975 621.53 193.137L622.469 198.863ZM631.604 197.25C633.593 196.883 635.621 196.501 637.682 196.112L636.594 190.411C634.535 190.8 632.517 191.18 630.542 191.545L631.604 197.25ZM643.741 194.969C645.733 194.595 647.751 194.221 649.791 193.85L648.748 188.141C646.691 188.515 644.66 188.892 642.661 189.267L643.741 194.969ZM655.839 192.777C657.838 192.433 659.855 192.097 661.886 191.773L660.986 186.04C658.923 186.369 656.879 186.709 654.855 187.058L655.839 192.777ZM667.935 190.859C669.941 190.572 671.957 190.303 673.979 190.054L673.311 184.288C671.242 184.543 669.184 184.818 667.14 185.11L667.935 190.859ZM680.031 189.378C682.047 189.176 684.066 188.999 686.086 188.851L685.74 183.054C683.658 183.207 681.581 183.389 679.512 183.595L680.031 189.378ZM692.139 188.497C694.157 188.41 696.172 188.356 698.182 188.339L698.26 182.524C696.17 182.542 694.08 182.598 691.991 182.688L692.139 188.497ZM704.205 188.401C706.213 188.461 708.212 188.563 710.199 188.71L710.816 182.912C708.729 182.758 706.635 182.652 704.538 182.589L704.205 188.401ZM716.149 189.293C718.126 189.537 720.087 189.83 722.031 190.178L723.313 184.464C721.249 184.095 719.171 183.784 717.083 183.527L716.149 189.293ZM727.819 191.391C729.729 191.852 731.619 192.373 733.484 192.955L735.546 187.432C733.543 186.807 731.519 186.25 729.478 185.756L727.819 191.391ZM738.994 194.891C740.795 195.597 742.57 196.369 744.316 197.211L747.229 192.024C745.339 191.113 743.42 190.278 741.477 189.516L738.994 194.891ZM749.414 199.921C751.052 200.877 752.661 201.903 754.238 203.004L757.988 198.306C756.276 197.112 754.531 195.998 752.754 194.961L749.414 199.921ZM758.773 206.448C760.214 207.638 761.625 208.899 763.004 210.235L767.483 206.137C765.993 204.694 764.466 203.329 762.905 202.041L758.773 206.448ZM766.927 214.343C768.158 215.734 769.358 217.194 770.526 218.727L775.574 215.27C774.324 213.629 773.036 212.062 771.712 210.566L766.927 214.343ZM773.775 223.306C774.792 224.845 775.78 226.448 776.739 228.119L782.191 225.27C781.176 223.501 780.126 221.798 779.043 220.158L773.775 223.306ZM779.429 233.147C780.243 234.779 781.031 236.467 781.791 238.214L787.517 235.91C786.719 234.078 785.891 232.302 785.034 230.583L779.429 233.147ZM783.933 243.487C784.587 245.212 785.215 246.988 785.818 248.817L791.724 246.984C791.097 245.081 790.441 243.23 789.759 241.429L783.933 243.487ZM787.482 254.23C787.995 256.022 788.485 257.861 788.951 259.747L794.972 258.314C794.49 256.364 793.983 254.461 793.452 252.604L787.482 254.23ZM790.215 265.256C790.604 267.088 790.972 268.962 791.318 270.879L797.411 269.783C797.055 267.813 796.676 265.885 796.275 263.997L790.215 265.256ZM792.248 276.474C792.53 278.324 792.792 280.212 793.035 282.137L799.172 281.327C798.923 279.357 798.654 277.423 798.365 275.526L792.248 276.474ZM793.684 287.832C793.873 289.683 794.045 291.567 794.2 293.485L800.362 292.92C800.204 290.964 800.029 289.041 799.836 287.15L793.684 287.832ZM794.607 299.311C794.717 301.15 794.811 303.019 794.89 304.917L801.065 304.564C800.985 302.633 800.889 300.731 800.777 298.858L794.607 299.311Z" fill="white"/>
<ellipse cx="618.224" cy="196.321" rx="9.5" ry="8.86914" fill="white"/>
<g filter="url(#filter0_d)">
<g clip-path="url(#clip1)">
<rect x="-10" y="-11" width="636" height="473" fill="#161616"/>
<rect x="-10" y="-10" width="636" height="473" fill="#1B1B1B"/>
<path d="M313.061 115H280.01C277.819 115 275.717 115.886 274.168 117.463C272.618 119.04 271.748 121.178 271.748 123.408V190.669C271.748 192.898 272.618 195.037 274.168 196.614C275.717 198.19 277.819 199.076 280.01 199.076H329.586C331.777 199.076 333.879 198.19 335.428 196.614C336.978 195.037 337.848 192.898 337.848 190.669V140.223L313.061 115Z" stroke="white" stroke-opacity="0.8" stroke-width="3.44275" stroke-linecap="round" stroke-linejoin="round"/>
<path d="M313.061 115V140.223H337.848" stroke="white" stroke-opacity="0.8" stroke-width="3.44275" stroke-linecap="round" stroke-linejoin="round"/>
<path d="M304.798 178.223V153" stroke="white" stroke-opacity="0.8" stroke-width="3.44275" stroke-linecap="round" stroke-linejoin="round"/>
<path d="M292.404 165.614H317.192" stroke="white" stroke-opacity="0.8" stroke-width="3.44275" stroke-linecap="round" stroke-linejoin="round"/>
<path d="M143.89 249C149.23 249 152.319 245.688 152.319 240.211C152.319 234.76 149.23 231.474 144.069 231.474H138.216V249H143.89ZM140.86 246.69V233.784H143.907C147.741 233.784 149.718 236.078 149.718 240.211C149.718 244.362 147.741 246.69 143.744 246.69H140.86ZM155.402 249H157.961V240.973C157.961 239.253 159.288 238.012 161.102 238.012C161.632 238.012 162.231 238.106 162.437 238.166V235.718C162.18 235.684 161.675 235.658 161.35 235.658C159.81 235.658 158.492 236.531 158.012 237.943H157.875V235.855H155.402V249ZM168.359 249.291C170.533 249.291 171.756 248.187 172.244 247.203H172.347V249H174.846V240.271C174.846 236.446 171.834 235.684 169.745 235.684C167.366 235.684 165.175 236.643 164.32 239.039L166.724 239.586C167.101 238.654 168.059 237.755 169.78 237.755C171.431 237.755 172.279 238.619 172.279 240.109V240.168C172.279 241.101 171.32 241.084 168.958 241.358C166.468 241.649 163.917 242.299 163.917 245.286C163.917 247.871 165.86 249.291 168.359 249.291ZM168.915 247.237C167.469 247.237 166.425 246.587 166.425 245.32C166.425 243.951 167.64 243.463 169.121 243.266C169.951 243.155 171.919 242.933 172.287 242.565V244.259C172.287 245.817 171.046 247.237 168.915 247.237ZM183.765 254.203C187.112 254.203 189.696 252.672 189.696 249.291V235.855H187.189V237.986H187C186.547 237.173 185.64 235.684 183.192 235.684C180.017 235.684 177.681 238.192 177.681 242.376C177.681 246.57 180.068 248.803 183.175 248.803C185.588 248.803 186.521 247.443 186.983 246.604H187.146V249.189C187.146 251.251 185.734 252.141 183.791 252.141C181.66 252.141 180.83 251.071 180.377 250.318L178.177 251.225C178.87 252.834 180.625 254.203 183.765 254.203ZM183.74 246.681C181.455 246.681 180.265 244.927 180.265 242.342C180.265 239.818 181.429 237.858 183.74 237.858C185.973 237.858 187.172 239.681 187.172 242.342C187.172 245.055 185.948 246.681 183.74 246.681ZM203.331 249.291C205.505 249.291 206.729 248.187 207.216 247.203H207.319V249H209.818V240.271C209.818 236.446 206.806 235.684 204.717 235.684C202.338 235.684 200.148 236.643 199.292 239.039L201.697 239.586C202.073 238.654 203.032 237.755 204.752 237.755C206.403 237.755 207.251 238.619 207.251 240.109V240.168C207.251 241.101 206.292 241.084 203.93 241.358C201.44 241.649 198.89 242.299 198.89 245.286C198.89 247.871 200.832 249.291 203.331 249.291ZM203.887 247.237C202.441 247.237 201.397 246.587 201.397 245.32C201.397 243.951 202.612 243.463 204.093 243.266C204.923 243.155 206.891 242.933 207.259 242.565V244.259C207.259 245.817 206.018 247.237 203.887 247.237ZM215.785 241.195C215.785 239.099 217.069 237.901 218.849 237.901C220.586 237.901 221.639 239.039 221.639 240.947V249H224.198V240.639C224.198 237.387 222.409 235.684 219.722 235.684C217.745 235.684 216.453 236.6 215.845 237.995H215.682V235.855H213.226V249H215.785V241.195ZM232.55 249.257C234.946 249.257 235.888 247.794 236.35 246.955H236.564V249H239.063V231.474H236.504V237.986H236.35C235.888 237.173 235.015 235.684 232.567 235.684C229.392 235.684 227.056 238.192 227.056 242.453C227.056 246.707 229.358 249.257 232.55 249.257ZM233.115 247.075C230.83 247.075 229.64 245.064 229.64 242.428C229.64 239.818 230.804 237.858 233.115 237.858C235.349 237.858 236.547 239.681 236.547 242.428C236.547 245.192 235.323 247.075 233.115 247.075ZM254.972 249C260.312 249 263.402 245.688 263.402 240.211C263.402 234.76 260.312 231.474 255.152 231.474H249.298V249H254.972ZM251.943 246.69V233.784H254.989C258.823 233.784 260.8 236.078 260.8 240.211C260.8 244.362 258.823 246.69 254.827 246.69H251.943ZM266.485 249H269.043V240.973C269.043 239.253 270.37 238.012 272.184 238.012C272.715 238.012 273.314 238.106 273.519 238.166V235.718C273.263 235.684 272.758 235.658 272.432 235.658C270.892 235.658 269.574 236.531 269.095 237.943H268.958V235.855H266.485V249ZM280.8 249.266C284.506 249.266 286.927 246.553 286.927 242.488C286.927 238.397 284.506 235.684 280.8 235.684C277.094 235.684 274.672 238.397 274.672 242.488C274.672 246.553 277.094 249.266 280.8 249.266ZM280.809 247.117C278.387 247.117 277.257 245.004 277.257 242.479C277.257 239.963 278.387 237.824 280.809 237.824C283.213 237.824 284.343 239.963 284.343 242.479C284.343 245.004 283.213 247.117 280.809 247.117ZM289.784 253.93H292.343V246.955H292.497C292.959 247.794 293.9 249.257 296.296 249.257C299.48 249.257 301.791 246.707 301.791 242.453C301.791 238.192 299.446 235.684 296.271 235.684C293.832 235.684 292.95 237.173 292.497 237.986H292.283V235.855H289.784V253.93ZM292.291 242.428C292.291 239.681 293.489 237.858 295.723 237.858C298.042 237.858 299.206 239.818 299.206 242.428C299.206 245.064 298.008 247.075 295.723 247.075C293.524 247.075 292.291 245.192 292.291 242.428ZM311.241 249H313.885V241.358H321.331V239.09H313.885V233.75H322.109V231.474H311.241V249ZM325.156 249H327.715V235.855H325.156V249ZM326.448 233.827C327.33 233.827 328.066 233.142 328.066 232.304C328.066 231.465 327.33 230.772 326.448 230.772C325.558 230.772 324.831 231.465 324.831 232.304C324.831 233.142 325.558 233.827 326.448 233.827ZM333.716 231.474H331.157V249H333.716V231.474ZM342.824 249.266C345.691 249.266 347.719 247.853 348.301 245.714L345.879 245.278C345.417 246.518 344.304 247.152 342.85 247.152C340.659 247.152 339.187 245.731 339.118 243.198H348.464V242.291C348.464 237.541 345.622 235.684 342.644 235.684C338.981 235.684 336.568 238.474 336.568 242.513C336.568 246.595 338.947 249.266 342.824 249.266ZM339.127 241.281C339.23 239.415 340.582 237.798 342.661 237.798C344.647 237.798 345.948 239.27 345.956 241.281H339.127ZM361.153 239.064C360.622 237.019 359.022 235.684 356.181 235.684C353.211 235.684 351.106 237.25 351.106 239.578C351.106 241.444 352.235 242.684 354.7 243.232L356.925 243.72C358.192 244.002 358.782 244.567 358.782 245.389C358.782 246.407 357.695 247.203 356.018 247.203C354.486 247.203 353.502 246.544 353.194 245.252L350.721 245.628C351.149 247.956 353.083 249.266 356.035 249.266C359.21 249.266 361.41 247.58 361.41 245.201C361.41 243.343 360.229 242.197 357.815 241.64L355.727 241.161C354.281 240.819 353.656 240.331 353.665 239.441C353.656 238.431 354.752 237.712 356.206 237.712C357.798 237.712 358.534 238.594 358.834 239.475L361.153 239.064ZM376.737 235.855H374.041V232.706H371.482V235.855H369.557V237.909H371.482V245.671C371.474 248.059 373.297 249.214 375.316 249.171C376.129 249.163 376.677 249.009 376.977 248.898L376.514 246.784C376.343 246.818 376.027 246.895 375.616 246.895C374.786 246.895 374.041 246.621 374.041 245.141V237.909H376.737V235.855ZM384.963 249.266C388.669 249.266 391.091 246.553 391.091 242.488C391.091 238.397 388.669 235.684 384.963 235.684C381.258 235.684 378.836 238.397 378.836 242.488C378.836 246.553 381.258 249.266 384.963 249.266ZM384.972 247.117C382.55 247.117 381.42 245.004 381.42 242.479C381.42 239.963 382.55 237.824 384.972 237.824C387.377 237.824 388.506 239.963 388.506 242.479C388.506 245.004 387.377 247.117 384.972 247.117ZM411.801 231.474V242.787C411.801 245.166 410.158 246.878 407.488 246.878C404.826 246.878 403.175 245.166 403.175 242.787V231.474H400.53V243.001C400.53 246.681 403.286 249.291 407.488 249.291C411.69 249.291 414.454 246.681 414.454 243.001V231.474H411.801ZM418.093 253.93H420.652V246.955H420.806C421.268 247.794 422.21 249.257 424.606 249.257C427.789 249.257 430.1 246.707 430.1 242.453C430.1 238.192 427.755 235.684 424.58 235.684C422.141 235.684 421.26 237.173 420.806 237.986H420.592V235.855H418.093V253.93ZM420.601 242.428C420.601 239.681 421.799 237.858 424.033 237.858C426.352 237.858 427.516 239.818 427.516 242.428C427.516 245.064 426.318 247.075 424.033 247.075C421.833 247.075 420.601 245.192 420.601 242.428ZM435.526 231.474H432.967V249H435.526V231.474ZM444.505 249.266C448.211 249.266 450.633 246.553 450.633 242.488C450.633 238.397 448.211 235.684 444.505 235.684C440.8 235.684 438.378 238.397 438.378 242.488C438.378 246.553 440.8 249.266 444.505 249.266ZM444.514 247.117C442.092 247.117 440.962 245.004 440.962 242.479C440.962 239.963 442.092 237.824 444.514 237.824C446.919 237.824 448.048 239.963 448.048 242.479C448.048 245.004 446.919 247.117 444.514 247.117ZM457.314 249.291C459.488 249.291 460.712 248.187 461.2 247.203H461.302V249H463.801V240.271C463.801 236.446 460.789 235.684 458.701 235.684C456.322 235.684 454.131 236.643 453.275 239.039L455.68 239.586C456.056 238.654 457.015 237.755 458.735 237.755C460.387 237.755 461.234 238.619 461.234 240.109V240.168C461.234 241.101 460.276 241.084 457.914 241.358C455.423 241.649 452.873 242.299 452.873 245.286C452.873 247.871 454.816 249.291 457.314 249.291ZM457.871 247.237C456.424 247.237 455.38 246.587 455.38 245.32C455.38 243.951 456.596 243.463 458.076 243.266C458.906 243.155 460.875 242.933 461.243 242.565V244.259C461.243 245.817 460.002 247.237 457.871 247.237ZM472.13 249.257C474.527 249.257 475.468 247.794 475.93 246.955H476.144V249H478.643V231.474H476.084V237.986H475.93C475.468 237.173 474.595 235.684 472.148 235.684C468.973 235.684 466.636 238.192 466.636 242.453C466.636 246.707 468.938 249.257 472.13 249.257ZM472.695 247.075C470.41 247.075 469.221 245.064 469.221 242.428C469.221 239.818 470.385 237.858 472.695 237.858C474.929 237.858 476.127 239.681 476.127 242.428C476.127 245.192 474.903 247.075 472.695 247.075Z" fill="white" fill-opacity="0.8"/>
<path d="M182.563 306.661C185.614 306.661 187.668 304.343 187.668 300.851C187.668 297.33 185.614 295.012 182.563 295.012C179.511 295.012 177.457 297.33 177.457 300.851C177.457 304.343 179.511 306.661 182.563 306.661ZM182.563 305.105C180.245 305.105 179.188 303.11 179.188 300.851C179.188 298.592 180.245 296.567 182.563 296.567C184.881 296.567 185.937 298.592 185.937 300.851C185.937 303.11 184.881 305.105 182.563 305.105ZM190.311 306.426H192.042V299.296C192.042 297.77 193.245 296.655 194.888 296.655C195.35 296.655 195.827 296.743 195.944 296.772V295.012C195.746 294.997 195.291 294.983 195.035 294.983C193.685 294.983 192.511 295.745 192.101 296.86H191.983V295.159H190.311V306.426ZM208.383 306.661C210.877 306.661 212.521 305.135 212.814 303.14H211.083C210.76 304.372 209.733 305.105 208.383 305.105C206.329 305.105 205.009 303.404 205.009 300.792C205.009 298.239 206.359 296.567 208.383 296.567C209.909 296.567 210.819 297.506 211.083 298.533H212.814C212.521 296.42 210.731 295.012 208.354 295.012C205.302 295.012 203.278 297.418 203.278 300.851C203.278 304.225 205.214 306.661 208.383 306.661ZM217.076 291.403H215.345V306.426H217.076V291.403ZM220.247 306.426H221.978V295.159H220.247V306.426ZM221.127 293.281C221.802 293.281 222.359 292.753 222.359 292.107C222.359 291.462 221.802 290.933 221.127 290.933C220.452 290.933 219.894 291.462 219.894 292.107C219.894 292.753 220.452 293.281 221.127 293.281ZM229.726 306.661C232.22 306.661 233.863 305.135 234.156 303.14H232.425C232.102 304.372 231.075 305.105 229.726 305.105C227.672 305.105 226.351 303.404 226.351 300.792C226.351 298.239 227.701 296.567 229.726 296.567C231.251 296.567 232.161 297.506 232.425 298.533H234.156C233.863 296.42 232.073 295.012 229.696 295.012C226.645 295.012 224.62 297.418 224.62 300.851C224.62 304.225 226.557 306.661 229.726 306.661ZM236.687 306.426H238.418V302.208L239.628 301.086L243.846 306.426H246.047L240.934 299.971L245.695 295.159H243.553L238.624 300.176H238.418V291.403H236.687V306.426ZM258.633 295.159H256.227V292.459H254.496V295.159H252.794V296.626H254.496V303.668C254.496 305.634 256.08 306.572 257.547 306.572C258.193 306.572 258.603 306.455 258.838 306.367L258.486 304.812C258.339 304.841 258.105 304.9 257.723 304.9C256.96 304.9 256.227 304.665 256.227 303.198V296.626H258.633V295.159ZM265.693 306.661C268.745 306.661 270.798 304.343 270.798 300.851C270.798 297.33 268.745 295.012 265.693 295.012C262.641 295.012 260.588 297.33 260.588 300.851C260.588 304.343 262.641 306.661 265.693 306.661ZM265.693 305.105C263.375 305.105 262.319 303.11 262.319 300.851C262.319 298.592 263.375 296.567 265.693 296.567C268.011 296.567 269.067 298.592 269.067 300.851C269.067 303.11 268.011 305.105 265.693 305.105ZM287.232 297.682C286.689 296.083 285.471 295.012 283.241 295.012C280.864 295.012 279.104 296.362 279.104 298.269C279.104 299.824 280.028 300.866 282.097 301.35L283.975 301.79C285.112 302.054 285.647 302.597 285.647 303.374C285.647 304.343 284.62 305.135 283.006 305.135C281.591 305.135 280.703 304.526 280.395 303.316L278.752 303.726C279.155 305.641 280.732 306.661 283.036 306.661C285.654 306.661 287.437 305.23 287.437 303.286C287.437 301.716 286.454 300.726 284.444 300.235L282.772 299.824C281.437 299.494 280.835 299.046 280.835 298.181C280.835 297.213 281.862 296.508 283.241 296.508C284.752 296.508 285.376 297.345 285.676 298.122L287.232 297.682ZM294.767 306.661C297.055 306.661 298.728 305.516 299.256 303.814L297.584 303.345C297.144 304.519 296.124 305.105 294.767 305.105C292.735 305.105 291.334 303.792 291.253 301.379H299.432V300.645C299.432 296.45 296.938 295.012 294.591 295.012C291.539 295.012 289.515 297.418 289.515 300.88C289.515 304.343 291.51 306.661 294.767 306.661ZM291.253 299.883C291.371 298.129 292.61 296.567 294.591 296.567C296.469 296.567 297.672 297.975 297.672 299.883H291.253ZM303.797 291.403H302.066V306.426H303.797V291.403ZM311.691 306.661C313.98 306.661 315.653 305.516 316.181 303.814L314.508 303.345C314.068 304.519 313.049 305.105 311.691 305.105C309.66 305.105 308.258 303.792 308.178 301.379H316.357V300.645C316.357 296.45 313.863 295.012 311.515 295.012C308.464 295.012 306.439 297.418 306.439 300.88C306.439 304.343 308.435 306.661 311.691 306.661ZM308.178 299.883C308.295 298.129 309.535 296.567 311.515 296.567C313.393 296.567 314.596 297.975 314.596 299.883H308.178ZM323.567 306.661C326.062 306.661 327.705 305.135 327.998 303.14H326.267C325.944 304.372 324.917 305.105 323.567 305.105C321.514 305.105 320.193 303.404 320.193 300.792C320.193 298.239 321.543 296.567 323.567 296.567C325.093 296.567 326.003 297.506 326.267 298.533H327.998C327.705 296.42 325.915 295.012 323.538 295.012C320.487 295.012 318.462 297.418 318.462 300.851C318.462 304.225 320.399 306.661 323.567 306.661ZM335.429 295.159H333.023V292.459H331.292V295.159H329.59V296.626H331.292V303.668C331.292 305.634 332.876 306.572 334.343 306.572C334.989 306.572 335.399 306.455 335.634 306.367L335.282 304.812C335.135 304.841 334.901 304.9 334.519 304.9C333.756 304.9 333.023 304.665 333.023 303.198V296.626H335.429V295.159ZM348.86 295.159H346.337V294.014C346.337 292.899 346.806 292.312 347.95 292.312C348.449 292.312 348.743 292.43 348.919 292.489L349.417 290.992C349.153 290.875 348.625 290.699 347.774 290.699C346.161 290.699 344.605 291.667 344.605 293.603V295.159H342.786V296.626H344.605V306.426H346.337V296.626H348.86V295.159ZM351.286 306.426H353.017V295.159H351.286V306.426ZM352.166 293.281C352.841 293.281 353.399 292.753 353.399 292.107C353.399 291.462 352.841 290.933 352.166 290.933C351.492 290.933 350.934 291.462 350.934 292.107C350.934 292.753 351.492 293.281 352.166 293.281ZM357.919 291.403H356.188V306.426H357.919V291.403ZM365.814 306.661C368.103 306.661 369.775 305.516 370.303 303.814L368.631 303.345C368.191 304.519 367.171 305.105 365.814 305.105C363.782 305.105 362.381 303.792 362.3 301.379H370.479V300.645C370.479 296.45 367.985 295.012 365.638 295.012C362.586 295.012 360.562 297.418 360.562 300.88C360.562 304.343 362.557 306.661 365.814 306.661ZM362.3 299.883C362.418 298.129 363.657 296.567 365.638 296.567C367.516 296.567 368.719 297.975 368.719 299.883H362.3ZM381.094 297.682C380.551 296.083 379.333 295.012 377.103 295.012C374.726 295.012 372.966 296.362 372.966 298.269C372.966 299.824 373.89 300.866 375.959 301.35L377.837 301.79C378.974 302.054 379.509 302.597 379.509 303.374C379.509 304.343 378.482 305.135 376.868 305.135C375.453 305.135 374.565 304.526 374.257 303.316L372.614 303.726C373.017 305.641 374.594 306.661 376.898 306.661C379.516 306.661 381.299 305.23 381.299 303.286C381.299 301.716 380.316 300.726 378.306 300.235L376.634 299.824C375.299 299.494 374.697 299.046 374.697 298.181C374.697 297.213 375.724 296.508 377.103 296.508C378.614 296.508 379.238 297.345 379.538 298.122L381.094 297.682ZM394.732 295.159H392.209V294.014C392.209 292.899 392.678 292.312 393.822 292.312C394.321 292.312 394.615 292.43 394.791 292.489L395.289 290.992C395.025 290.875 394.497 290.699 393.646 290.699C392.032 290.699 390.477 291.667 390.477 293.603V295.159H388.658V296.626H390.477V306.426H392.209V296.626H394.732V295.159ZM397.158 306.426H398.889V299.296C398.889 297.77 400.092 296.655 401.735 296.655C402.197 296.655 402.674 296.743 402.792 296.772V295.012C402.594 294.997 402.139 294.983 401.882 294.983C400.532 294.983 399.359 295.745 398.948 296.86H398.831V295.159H397.158V306.426ZM409.078 306.661C412.13 306.661 414.184 304.343 414.184 300.851C414.184 297.33 412.13 295.012 409.078 295.012C406.027 295.012 403.973 297.33 403.973 300.851C403.973 304.343 406.027 306.661 409.078 306.661ZM409.078 305.105C406.76 305.105 405.704 303.11 405.704 300.851C405.704 298.592 406.76 296.567 409.078 296.567C411.396 296.567 412.452 298.592 412.452 300.851C412.452 303.11 411.396 305.105 409.078 305.105ZM416.826 306.426H418.557V299.384C418.557 297.733 419.76 296.567 421.11 296.567C422.423 296.567 423.34 297.425 423.34 298.709V306.426H425.1V299.09C425.1 297.638 426.01 296.567 427.594 296.567C428.827 296.567 429.883 297.22 429.883 298.885V306.426H431.614V298.885C431.614 296.237 430.191 295.012 428.181 295.012C426.567 295.012 425.386 295.753 424.807 296.919H424.69C424.132 295.716 423.149 295.012 421.667 295.012C420.2 295.012 419.115 295.716 418.645 296.919H418.499V295.159H416.826V306.426ZM250.793 335.651C252.355 335.651 253.456 334.822 254.109 333.069L258.906 320.188L257.013 320.159L253.903 329.137H253.786L250.676 320.159H248.798L252.964 331.484L252.641 332.365C252.011 334.081 251.233 334.243 249.971 333.92L249.531 335.446C249.707 335.534 250.206 335.651 250.793 335.651ZM265.37 331.661C268.422 331.661 270.476 329.343 270.476 325.851C270.476 322.33 268.422 320.012 265.37 320.012C262.319 320.012 260.265 322.33 260.265 325.851C260.265 329.343 262.319 331.661 265.37 331.661ZM265.37 330.105C263.052 330.105 261.996 328.11 261.996 325.851C261.996 323.592 263.052 321.567 265.37 321.567C267.688 321.567 268.745 323.592 268.745 325.851C268.745 328.11 267.688 330.105 265.37 330.105ZM280.219 326.819C280.219 328.932 278.605 329.9 277.314 329.9C275.876 329.9 274.849 328.844 274.849 327.201V320.159H273.118V327.318C273.118 330.193 274.644 331.572 276.757 331.572C278.458 331.572 279.573 330.663 280.102 329.519H280.219V331.426H281.95V320.159H280.219V326.819ZM285.121 331.426H286.852V324.296C286.852 322.77 288.055 321.655 289.698 321.655C290.16 321.655 290.637 321.743 290.754 321.772V320.012C290.556 319.997 290.102 319.983 289.845 319.983C288.495 319.983 287.321 320.745 286.911 321.86H286.793V320.159H285.121V331.426ZM302.871 331.661C305.042 331.661 305.775 330.311 306.157 329.695H306.362V331.426H308.035V316.403H306.304V321.948H306.157C305.775 321.362 305.101 320.012 302.9 320.012C300.054 320.012 298.088 322.271 298.088 325.822C298.088 329.401 300.054 331.661 302.871 331.661ZM303.105 330.105C300.934 330.105 299.819 328.198 299.819 325.792C299.819 323.416 300.905 321.567 303.105 321.567C305.218 321.567 306.333 323.269 306.333 325.792C306.333 328.345 305.189 330.105 303.105 330.105ZM316.17 331.661C318.458 331.661 320.131 330.516 320.659 328.814L318.987 328.345C318.546 329.519 317.527 330.105 316.17 330.105C314.138 330.105 312.737 328.792 312.656 326.379H320.835V325.645C320.835 321.45 318.341 320.012 315.994 320.012C312.942 320.012 310.918 322.418 310.918 325.88C310.918 329.343 312.913 331.661 316.17 331.661ZM312.656 324.883C312.773 323.129 314.013 321.567 315.994 321.567C317.872 321.567 319.075 322.975 319.075 324.883H312.656ZM332.339 320.159H330.461L327.351 329.137H327.233L324.123 320.159H322.245L326.412 331.426H328.172L332.339 320.159ZM334.624 331.426H336.355V320.159H334.624V331.426ZM335.504 318.281C336.179 318.281 336.736 317.753 336.736 317.107C336.736 316.462 336.179 315.933 335.504 315.933C334.829 315.933 334.272 316.462 334.272 317.107C334.272 317.753 334.829 318.281 335.504 318.281ZM344.103 331.661C346.597 331.661 348.24 330.135 348.534 328.14H346.802C346.48 329.372 345.453 330.105 344.103 330.105C342.049 330.105 340.729 328.404 340.729 325.792C340.729 323.239 342.078 321.567 344.103 321.567C345.629 321.567 346.538 322.506 346.802 323.533H348.534C348.24 321.42 346.45 320.012 344.074 320.012C341.022 320.012 338.997 322.418 338.997 325.851C338.997 329.225 340.934 331.661 344.103 331.661ZM355.788 331.661C358.077 331.661 359.749 330.516 360.278 328.814L358.605 328.345C358.165 329.519 357.145 330.105 355.788 330.105C353.756 330.105 352.355 328.792 352.275 326.379H360.454V325.645C360.454 321.45 357.96 320.012 355.612 320.012C352.561 320.012 350.536 322.418 350.536 325.88C350.536 329.343 352.531 331.661 355.788 331.661ZM352.275 324.883C352.392 323.129 353.632 321.567 355.612 321.567C357.49 321.567 358.693 322.975 358.693 324.883H352.275Z" fill="white" fill-opacity="0.8"/>
<rect x="57.7806" y="73.7652" width="494.034" height="320.176" rx="7.74618" stroke="white" stroke-opacity="0.8" stroke-width="1.72137" stroke-dasharray="3.44 3.44"/>
<g filter="url(#filter1_d)">
<path d="M24.5037 327.612C24.5037 324.131 27.3253 321.31 30.806 321.31H56.4658H68.6565C70.4913 321.31 72.235 322.109 73.4323 323.5L78.5241 329.413L85.2026 337.575C86.1238 338.701 86.6272 340.111 86.6272 341.566V357.323V387.034C86.6272 390.515 83.8055 393.337 80.3248 393.337H30.806C27.3253 393.337 24.5037 390.515 24.5037 387.034V327.612Z" fill="#0971F1" fill-opacity="0.8"/>
<path d="M71.1232 381.989C71.2552 382.055 71.3302 382.157 71.3482 382.295C71.3723 382.433 71.3392 382.559 71.2492 382.673C71.1832 382.763 71.0962 382.814 70.9881 382.826C70.8861 382.838 70.784 382.817 70.682 382.763C70.5079 382.673 70.3249 382.601 70.1328 382.547C69.9407 382.493 69.7366 382.466 69.5206 382.466C69.1784 382.466 68.8693 382.523 68.5932 382.637C68.3231 382.745 68.089 382.904 67.8909 383.115C67.6929 383.319 67.5398 383.562 67.4318 383.844C67.3297 384.126 67.2787 384.438 67.2787 384.78C67.2787 385.158 67.3357 385.494 67.4498 385.789C67.5638 386.077 67.7199 386.323 67.9179 386.527C68.122 386.725 68.3591 386.875 68.6292 386.977C68.9053 387.073 69.2024 387.121 69.5206 387.121C69.7246 387.121 69.9227 387.097 70.1148 387.049C70.3129 387.001 70.4989 386.929 70.673 386.833C70.781 386.779 70.8861 386.761 70.9881 386.779C71.0962 386.791 71.1832 386.842 71.2492 386.932C71.3512 387.058 71.3873 387.187 71.3572 387.319C71.3332 387.445 71.2582 387.541 71.1322 387.607C70.9821 387.691 70.817 387.763 70.637 387.823C70.4569 387.883 70.2738 387.931 70.0878 387.967C69.9017 388.003 69.7126 388.021 69.5206 388.021C69.0884 388.021 68.6802 387.949 68.2961 387.805C67.9119 387.661 67.5698 387.451 67.2697 387.175C66.9696 386.899 66.7325 386.56 66.5584 386.158C66.3904 385.756 66.3063 385.296 66.3063 384.78C66.3063 384.318 66.3844 383.892 66.5404 383.502C66.7025 383.106 66.9276 382.766 67.2157 382.484C67.5098 382.196 67.8519 381.974 68.2421 381.818C68.6322 381.656 69.0584 381.575 69.5206 381.575C69.8087 381.575 70.0878 381.611 70.3579 381.683C70.634 381.755 70.8891 381.857 71.1232 381.989ZM74.308 388.021C73.8759 388.021 73.4917 387.961 73.1556 387.841C72.8195 387.721 72.4984 387.523 72.1922 387.247C72.1262 387.199 72.0752 387.142 72.0392 387.076C72.0092 387.004 71.9942 386.932 71.9942 386.86C71.9942 386.746 72.0362 386.644 72.1202 386.554C72.2042 386.464 72.3093 386.419 72.4353 386.419C72.5314 386.419 72.6214 386.452 72.7054 386.518C72.9335 386.728 73.1706 386.887 73.4167 386.995C73.6688 387.103 73.9629 387.157 74.299 387.157C74.5391 387.157 74.7582 387.118 74.9563 387.04C75.1604 386.962 75.3224 386.857 75.4425 386.725C75.5625 386.593 75.6225 386.44 75.6225 386.266C75.6225 386.05 75.5595 385.873 75.4335 385.735C75.3134 385.591 75.1364 385.473 74.9023 385.383C74.6742 385.287 74.3981 385.206 74.074 385.14C73.7738 385.086 73.5037 385.011 73.2637 384.915C73.0296 384.819 72.8285 384.699 72.6604 384.555C72.4924 384.405 72.3633 384.228 72.2733 384.024C72.1832 383.82 72.1382 383.583 72.1382 383.313C72.1382 382.947 72.2343 382.631 72.4263 382.367C72.6184 382.103 72.8795 381.899 73.2096 381.755C73.5398 381.611 73.9119 381.539 74.3261 381.539C74.7042 381.539 75.0583 381.599 75.3885 381.719C75.7186 381.833 75.9857 381.989 76.1898 382.187C76.3338 382.313 76.4058 382.448 76.4058 382.592C76.4058 382.7 76.3608 382.802 76.2708 382.898C76.1868 382.989 76.0877 383.034 75.9737 383.034C75.8896 383.034 75.8176 383.01 75.7576 382.962C75.6616 382.859 75.5325 382.769 75.3704 382.691C75.2084 382.607 75.0343 382.538 74.8483 382.484C74.6682 382.43 74.4941 382.403 74.3261 382.403C74.056 382.403 73.8249 382.442 73.6328 382.52C73.4407 382.592 73.2937 382.694 73.1916 382.826C73.0896 382.953 73.0386 383.103 73.0386 383.277C73.0386 383.481 73.0956 383.649 73.2096 383.781C73.3297 383.913 73.4947 384.021 73.7048 384.105C73.9149 384.183 74.155 384.255 74.4251 384.321C74.7552 384.393 75.0493 384.474 75.3074 384.564C75.5715 384.654 75.7936 384.771 75.9737 384.915C76.1537 385.053 76.2918 385.227 76.3878 385.437C76.4839 385.648 76.5319 385.909 76.5319 386.221C76.5319 386.581 76.4299 386.896 76.2258 387.166C76.0217 387.436 75.7516 387.646 75.4155 387.796C75.0853 387.946 74.7162 388.021 74.308 388.021ZM82.2307 381.611C82.3567 381.611 82.4648 381.653 82.5548 381.737C82.6449 381.821 82.6899 381.923 82.6899 382.043C82.6899 382.109 82.6749 382.178 82.6449 382.25L80.367 387.634C80.319 387.736 80.2529 387.811 80.1689 387.859C80.0909 387.907 80.0099 387.931 79.9258 387.931C79.8418 387.925 79.7608 387.898 79.6827 387.85C79.6107 387.802 79.5537 387.733 79.5117 387.643L77.2338 382.25C77.2218 382.22 77.2128 382.19 77.2068 382.16C77.2008 382.124 77.1978 382.088 77.1978 382.052C77.1978 381.914 77.2488 381.806 77.3508 381.728C77.4529 381.65 77.5519 381.611 77.648 381.611C77.84 381.611 77.9811 381.71 78.0711 381.908L80.1329 386.797H79.8718L81.8165 381.899C81.9006 381.707 82.0386 381.611 82.2307 381.611Z" fill="white"/>
<path d="M69.5208 321.31L83.0259 336.615H71.3214C70.3269 336.615 69.5208 335.809 69.5208 334.815V321.31Z" fill="white"/>
<path d="M-27.2659 356.373C-27.2659 352.892 -24.4442 350.07 -20.9635 350.07H4.69623H16.887C18.7218 350.07 20.4655 350.87 21.6627 352.26L26.7546 358.174L33.433 366.336C34.3543 367.462 34.8577 368.872 34.8577 370.327V386.084V415.795C34.8577 419.276 32.036 422.098 28.5553 422.098H-20.9635C-24.4442 422.098 -27.2659 419.276 -27.2659 415.795V356.373Z" fill="#0971F1" fill-opacity="0.6"/>
<path d="M19.3539 410.75C19.4859 410.816 19.561 410.918 19.579 411.056C19.603 411.194 19.57 411.32 19.4799 411.435C19.4139 411.525 19.3269 411.576 19.2188 411.588C19.1168 411.6 19.0147 411.579 18.9127 411.525C18.7386 411.435 18.5556 411.362 18.3635 411.308C18.1714 411.254 17.9673 411.227 17.7513 411.227C17.4091 411.227 17.1 411.284 16.8239 411.398C16.5538 411.507 16.3197 411.666 16.1216 411.876C15.9236 412.08 15.7705 412.323 15.6625 412.605C15.5604 412.887 15.5094 413.199 15.5094 413.541C15.5094 413.919 15.5664 414.256 15.6805 414.55C15.7945 414.838 15.9506 415.084 16.1487 415.288C16.3527 415.486 16.5898 415.636 16.8599 415.738C17.136 415.834 17.4331 415.882 17.7513 415.882C17.9553 415.882 18.1534 415.858 18.3455 415.81C18.5436 415.762 18.7296 415.69 18.9037 415.594C19.0117 415.54 19.1168 415.522 19.2188 415.54C19.3269 415.552 19.4139 415.603 19.4799 415.693C19.582 415.819 19.618 415.948 19.588 416.08C19.564 416.206 19.4889 416.302 19.3629 416.368C19.2128 416.452 19.0478 416.524 18.8677 416.584C18.6876 416.644 18.5046 416.693 18.3185 416.729C18.1324 416.765 17.9433 416.783 17.7513 416.783C17.3191 416.783 16.9109 416.711 16.5268 416.566C16.1427 416.422 15.8005 416.212 15.5004 415.936C15.2003 415.66 14.9632 415.321 14.7891 414.919C14.6211 414.517 14.537 414.058 14.537 413.541C14.537 413.079 14.6151 412.653 14.7711 412.263C14.9332 411.867 15.1583 411.528 15.4464 411.245C15.7405 410.957 16.0826 410.735 16.4728 410.579C16.8629 410.417 17.2891 410.336 17.7513 410.336C18.0394 410.336 18.3185 410.372 18.5886 410.444C18.8647 410.516 19.1198 410.618 19.3539 410.75ZM22.5388 416.783C22.1066 416.783 21.7225 416.723 21.3863 416.602C21.0502 416.482 20.7291 416.284 20.423 416.008C20.3569 415.96 20.3059 415.903 20.2699 415.837C20.2399 415.765 20.2249 415.693 20.2249 415.621C20.2249 415.507 20.2669 415.405 20.3509 415.315C20.435 415.225 20.54 415.18 20.6661 415.18C20.7621 415.18 20.8521 415.213 20.9362 415.279C21.1642 415.489 21.4013 415.648 21.6474 415.756C21.8995 415.864 22.1936 415.918 22.5298 415.918C22.7698 415.918 22.9889 415.879 23.187 415.801C23.3911 415.723 23.5531 415.618 23.6732 415.486C23.7932 415.354 23.8533 415.201 23.8533 415.027C23.8533 414.811 23.7902 414.634 23.6642 414.496C23.5441 414.352 23.3671 414.235 23.133 414.145C22.9049 414.049 22.6288 413.967 22.3047 413.901C22.0046 413.847 21.7345 413.772 21.4944 413.676C21.2603 413.58 21.0592 413.46 20.8911 413.316C20.7231 413.166 20.594 412.989 20.504 412.785C20.414 412.581 20.3689 412.344 20.3689 412.074C20.3689 411.708 20.465 411.392 20.657 411.128C20.8491 410.864 21.1102 410.66 21.4403 410.516C21.7705 410.372 22.1426 410.3 22.5568 410.3C22.9349 410.3 23.289 410.36 23.6192 410.48C23.9493 410.594 24.2164 410.75 24.4205 410.948C24.5645 411.074 24.6366 411.209 24.6366 411.353C24.6366 411.462 24.5915 411.564 24.5015 411.66C24.4175 411.75 24.3184 411.795 24.2044 411.795C24.1204 411.795 24.0483 411.771 23.9883 411.723C23.8923 411.621 23.7632 411.531 23.6012 411.453C23.4391 411.368 23.265 411.299 23.079 411.245C22.8989 411.191 22.7248 411.164 22.5568 411.164C22.2867 411.164 22.0556 411.203 21.8635 411.281C21.6714 411.353 21.5244 411.456 21.4223 411.588C21.3203 411.714 21.2693 411.864 21.2693 412.038C21.2693 412.242 21.3263 412.41 21.4403 412.542C21.5604 412.674 21.7255 412.782 21.9355 412.866C22.1456 412.944 22.3857 413.016 22.6558 413.082C22.9859 413.154 23.28 413.235 23.5381 413.325C23.8022 413.415 24.0243 413.532 24.2044 413.676C24.3845 413.814 24.5225 413.988 24.6185 414.199C24.7146 414.409 24.7626 414.67 24.7626 414.982C24.7626 415.342 24.6606 415.657 24.4565 415.927C24.2524 416.197 23.9823 416.407 23.6462 416.557C23.3161 416.708 22.9469 416.783 22.5388 416.783ZM30.4614 410.372C30.5875 410.372 30.6955 410.414 30.7855 410.498C30.8756 410.582 30.9206 410.684 30.9206 410.804C30.9206 410.87 30.9056 410.939 30.8756 411.011L28.5977 416.395C28.5497 416.497 28.4837 416.572 28.3996 416.62C28.3216 416.668 28.2406 416.693 28.1565 416.693C28.0725 416.687 27.9915 416.659 27.9134 416.611C27.8414 416.563 27.7844 416.494 27.7424 416.404L25.4645 411.011C25.4525 410.981 25.4435 410.951 25.4375 410.921C25.4315 410.885 25.4285 410.849 25.4285 410.813C25.4285 410.675 25.4795 410.567 25.5816 410.489C25.6836 410.411 25.7826 410.372 25.8787 410.372C26.0707 410.372 26.2118 410.471 26.3018 410.669L28.3636 415.558H28.1025L30.0473 410.66C30.1313 410.468 30.2693 410.372 30.4614 410.372Z" fill="white"/>
<path d="M17.7515 350.07L31.2566 365.376H19.5521C18.5577 365.376 17.7515 364.57 17.7515 363.576V350.07Z" fill="white"/>
<path d="M75.698 302.302C75.698 298.822 78.5197 296 82.0004 296H107.66H119.851C121.686 296 123.429 296.8 124.627 298.19L129.718 304.103L136.397 312.266C137.318 313.392 137.822 314.802 137.822 316.257V332.014V361.725C137.822 365.206 135 368.027 131.519 368.027H82.0004C78.5197 368.027 75.698 365.206 75.698 361.725V302.302Z" fill="#0971F1"/>
<path d="M122.318 356.68C122.45 356.746 122.525 356.848 122.543 356.986C122.567 357.124 122.534 357.25 122.444 357.364C122.378 357.454 122.291 357.505 122.183 357.517C122.081 357.529 121.979 357.508 121.877 357.454C121.703 357.364 121.519 357.292 121.327 357.238C121.135 357.184 120.931 357.157 120.715 357.157C120.373 357.157 120.064 357.214 119.788 357.328C119.518 357.436 119.284 357.595 119.086 357.805C118.887 358.009 118.734 358.252 118.626 358.534C118.524 358.816 118.473 359.129 118.473 359.471C118.473 359.849 118.53 360.185 118.644 360.479C118.758 360.767 118.914 361.013 119.113 361.217C119.317 361.415 119.554 361.565 119.824 361.667C120.1 361.764 120.397 361.812 120.715 361.812C120.919 361.812 121.117 361.788 121.309 361.739C121.507 361.691 121.694 361.619 121.868 361.523C121.976 361.469 122.081 361.451 122.183 361.469C122.291 361.481 122.378 361.532 122.444 361.622C122.546 361.748 122.582 361.878 122.552 362.01C122.528 362.136 122.453 362.232 122.327 362.298C122.177 362.382 122.012 362.454 121.832 362.514C121.651 362.574 121.468 362.622 121.282 362.658C121.096 362.694 120.907 362.712 120.715 362.712C120.283 362.712 119.875 362.64 119.491 362.496C119.107 362.352 118.764 362.142 118.464 361.866C118.164 361.589 117.927 361.25 117.753 360.848C117.585 360.446 117.501 359.987 117.501 359.471C117.501 359.008 117.579 358.582 117.735 358.192C117.897 357.796 118.122 357.457 118.41 357.175C118.704 356.887 119.047 356.665 119.437 356.509C119.827 356.346 120.253 356.265 120.715 356.265C121.003 356.265 121.282 356.301 121.552 356.373C121.829 356.445 122.084 356.548 122.318 356.68ZM125.503 362.712C125.07 362.712 124.686 362.652 124.35 362.532C124.014 362.412 123.693 362.214 123.387 361.938C123.321 361.89 123.27 361.833 123.234 361.767C123.204 361.694 123.189 361.622 123.189 361.55C123.189 361.436 123.231 361.334 123.315 361.244C123.399 361.154 123.504 361.109 123.63 361.109C123.726 361.109 123.816 361.142 123.9 361.208C124.128 361.418 124.365 361.577 124.611 361.685C124.863 361.794 125.157 361.848 125.494 361.848C125.734 361.848 125.953 361.809 126.151 361.73C126.355 361.652 126.517 361.547 126.637 361.415C126.757 361.283 126.817 361.13 126.817 360.956C126.817 360.74 126.754 360.563 126.628 360.425C126.508 360.281 126.331 360.164 126.097 360.074C125.869 359.978 125.593 359.897 125.269 359.831C124.968 359.777 124.698 359.702 124.458 359.606C124.224 359.51 124.023 359.39 123.855 359.246C123.687 359.095 123.558 358.918 123.468 358.714C123.378 358.51 123.333 358.273 123.333 358.003C123.333 357.637 123.429 357.322 123.621 357.058C123.813 356.794 124.074 356.59 124.404 356.445C124.734 356.301 125.106 356.229 125.521 356.229C125.899 356.229 126.253 356.289 126.583 356.409C126.913 356.524 127.18 356.68 127.384 356.878C127.528 357.004 127.6 357.139 127.6 357.283C127.6 357.391 127.555 357.493 127.465 357.589C127.381 357.679 127.282 357.724 127.168 357.724C127.084 357.724 127.012 357.7 126.952 357.652C126.856 357.55 126.727 357.46 126.565 357.382C126.403 357.298 126.229 357.229 126.043 357.175C125.863 357.121 125.689 357.094 125.521 357.094C125.251 357.094 125.019 357.133 124.827 357.211C124.635 357.283 124.488 357.385 124.386 357.517C124.284 357.643 124.233 357.793 124.233 357.967C124.233 358.171 124.29 358.339 124.404 358.471C124.524 358.603 124.689 358.711 124.899 358.795C125.109 358.873 125.35 358.945 125.62 359.011C125.95 359.083 126.244 359.165 126.502 359.255C126.766 359.345 126.988 359.462 127.168 359.606C127.348 359.744 127.486 359.918 127.582 360.128C127.678 360.338 127.726 360.599 127.726 360.911C127.726 361.271 127.624 361.586 127.42 361.857C127.216 362.127 126.946 362.337 126.61 362.487C126.28 362.637 125.911 362.712 125.503 362.712ZM133.425 356.301C133.551 356.301 133.659 356.343 133.749 356.427C133.839 356.512 133.884 356.614 133.884 356.734C133.884 356.8 133.869 356.869 133.839 356.941L131.562 362.325C131.514 362.427 131.448 362.502 131.363 362.55C131.285 362.598 131.204 362.622 131.12 362.622C131.036 362.616 130.955 362.589 130.877 362.541C130.805 362.493 130.748 362.424 130.706 362.334L128.428 356.941C128.416 356.911 128.407 356.881 128.401 356.851C128.395 356.815 128.392 356.779 128.392 356.743C128.392 356.605 128.443 356.497 128.545 356.418C128.647 356.34 128.747 356.301 128.843 356.301C129.035 356.301 129.176 356.4 129.266 356.599L131.327 361.487H131.066L133.011 356.59C133.095 356.397 133.233 356.301 133.425 356.301Z" fill="white"/>
<path d="M120.715 296L134.22 311.306H122.516C121.522 311.306 120.715 310.5 120.715 309.505V296Z" fill="white"/>
<path fill-rule="evenodd" clip-rule="evenodd" d="M136.51 359.336C137.338 359.029 138.973 359.217 139.404 360.153C139.772 360.95 140.087 362.294 140.105 362.008C140.146 361.371 140.063 359.994 140.341 359.274C140.543 358.75 140.94 358.256 141.525 358.082C142.017 357.933 142.595 357.882 143.106 357.987C143.646 358.097 144.213 358.482 144.426 358.848C145.05 359.923 145.061 362.125 145.09 362.008C145.201 361.538 145.211 359.887 145.578 359.274C145.822 358.869 146.436 358.506 146.764 358.448C147.271 358.358 147.896 358.33 148.428 358.434C148.857 358.518 149.439 359.027 149.596 359.274C149.974 359.868 150.186 361.545 150.25 362.135C150.277 362.379 150.378 361.457 150.755 360.865C151.456 359.763 153.938 359.549 154.031 361.968C154.076 363.097 154.065 363.045 154.065 363.804C154.065 364.694 154.045 365.233 153.996 365.878C153.944 366.567 153.796 368.129 153.58 368.884C153.432 369.404 152.94 370.572 152.453 371.273C152.453 371.273 150.6 373.43 150.398 374.4C150.196 375.371 150.264 375.378 150.222 376.065C150.183 376.753 150.431 377.658 150.431 377.658C150.431 377.658 149.049 377.837 148.302 377.716C147.627 377.609 146.792 376.267 146.576 375.856C146.279 375.29 145.646 375.399 145.399 375.816C145.012 376.477 144.175 377.663 143.587 377.737C142.433 377.882 140.041 377.789 138.168 377.771C138.168 377.771 138.488 376.027 137.777 375.428C137.25 374.979 136.344 374.075 135.803 373.599L134.367 372.01C133.879 371.388 132.638 370.406 132.222 368.584C131.854 366.969 131.891 366.177 132.286 365.53C132.686 364.872 133.442 364.513 133.759 364.451C134.118 364.379 134.954 364.384 135.269 364.558C135.654 364.77 135.81 364.833 136.112 365.233C136.508 365.763 136.65 366.02 136.479 365.442C136.348 364.99 135.923 364.415 135.73 363.768C135.542 363.145 135.038 362.14 135.074 361.134C135.088 360.753 135.252 359.804 136.51 359.336Z" fill="white"/>
<path fill-rule="evenodd" clip-rule="evenodd" d="M136.51 359.336C137.338 359.029 138.973 359.217 139.404 360.152C139.772 360.95 140.087 362.294 140.105 362.007C140.146 361.371 140.063 359.994 140.341 359.274C140.543 358.749 140.94 358.256 141.525 358.082C142.017 357.933 142.595 357.881 143.106 357.987C143.646 358.097 144.213 358.482 144.426 358.848C145.05 359.923 145.061 362.125 145.09 362.007C145.201 361.538 145.211 359.887 145.578 359.274C145.822 358.869 146.436 358.506 146.764 358.447C147.271 358.358 147.896 358.33 148.428 358.434C148.857 358.518 149.439 359.027 149.596 359.274C149.974 359.868 150.186 361.545 150.25 362.135C150.277 362.379 150.377 361.457 150.755 360.865C151.456 359.762 153.938 359.548 154.031 361.968C154.076 363.096 154.065 363.045 154.065 363.804C154.065 364.694 154.045 365.233 153.996 365.878C153.944 366.567 153.796 368.128 153.58 368.884C153.432 369.404 152.94 370.572 152.453 371.273C152.453 371.273 150.6 373.43 150.398 374.399C150.196 375.371 150.264 375.378 150.222 376.065C150.183 376.753 150.431 377.657 150.431 377.657C150.431 377.657 149.049 377.837 148.302 377.716C147.627 377.609 146.792 376.267 146.576 375.856C146.279 375.29 145.646 375.399 145.399 375.816C145.012 376.477 144.175 377.663 143.587 377.737C142.433 377.882 140.041 377.789 138.168 377.771C138.168 377.771 138.488 376.027 137.777 375.428C137.25 374.979 136.344 374.075 135.803 373.599L134.367 372.009C133.879 371.388 132.638 370.406 132.222 368.584C131.854 366.969 131.891 366.177 132.286 365.53C132.686 364.872 133.442 364.513 133.759 364.451C134.118 364.379 134.954 364.384 135.269 364.558C135.654 364.77 135.81 364.832 136.112 365.233C136.508 365.763 136.65 366.02 136.479 365.442C136.348 364.989 135.923 364.415 135.73 363.768C135.542 363.145 135.038 362.14 135.074 361.134C135.088 360.753 135.252 359.804 136.51 359.336Z" stroke="#1E1E1E" stroke-width="1.29424" stroke-linejoin="round"/>
<path fill-rule="evenodd" clip-rule="evenodd" d="M136.51 359.336C137.338 359.029 138.973 359.217 139.404 360.153C139.772 360.95 140.087 362.294 140.105 362.008C140.146 361.371 140.063 359.994 140.341 359.274C140.543 358.75 140.94 358.256 141.525 358.082C142.017 357.933 142.595 357.882 143.106 357.987C143.646 358.097 144.213 358.482 144.426 358.848C145.05 359.923 145.061 362.125 145.09 362.008C145.201 361.538 145.211 359.887 145.578 359.274C145.822 358.869 146.436 358.506 146.764 358.448C147.271 358.358 147.896 358.33 148.428 358.434C148.857 358.518 149.439 359.027 149.596 359.274C149.974 359.868 150.186 361.545 150.25 362.135C150.277 362.379 150.377 361.457 150.755 360.865C151.456 359.763 153.938 359.549 154.031 361.968C154.076 363.097 154.065 363.045 154.065 363.804C154.065 364.694 154.045 365.233 153.996 365.878C153.944 366.567 153.796 368.129 153.58 368.884C153.432 369.404 152.94 370.572 152.453 371.273C152.453 371.273 150.6 373.43 150.398 374.4C150.196 375.371 150.264 375.378 150.222 376.065C150.183 376.753 150.431 377.658 150.431 377.658C150.431 377.658 149.049 377.837 148.302 377.716C147.627 377.609 146.792 376.267 146.576 375.856C146.279 375.29 145.646 375.399 145.399 375.816C145.012 376.477 144.175 377.663 143.587 377.737C142.433 377.882 140.041 377.789 138.168 377.771C138.168 377.771 138.488 376.027 137.777 375.428C137.25 374.979 136.344 374.075 135.803 373.599L134.367 372.01C133.879 371.388 132.638 370.406 132.222 368.584C131.854 366.969 131.891 366.177 132.286 365.53C132.686 364.872 133.442 364.513 133.759 364.451C134.118 364.379 134.954 364.384 135.269 364.558C135.654 364.77 135.81 364.833 136.112 365.233C136.508 365.763 136.65 366.02 136.479 365.442C136.348 364.99 135.923 364.415 135.73 363.768C135.542 363.145 135.038 362.14 135.074 361.134C135.088 360.753 135.252 359.804 136.51 359.336Z" stroke="#1E1E1E" stroke-width="1.29424" stroke-linejoin="round"/>
<path d="M148.577 372.621V366.652" stroke="#1E1E1E" stroke-width="1.29424" stroke-linecap="round"/>
<path d="M145.1 372.641L145.072 366.648" stroke="#1E1E1E" stroke-width="1.29424" stroke-linecap="round"/>
<path d="M141.655 366.702L141.691 372.614" stroke="#1E1E1E" stroke-width="1.29424" stroke-linecap="round"/>
</g>
</g>
<rect x="-9.5" y="-10.5" width="635" height="472" stroke="#161616"/>
</g>
<g filter="url(#filter2_d)">
<g clip-path="url(#clip2)">
<rect x="297" y="319" width="952" height="475" fill="#161616"/>
<g filter="url(#filter3_d)">
<rect x="298.82" y="319" width="949.804" height="478.541" rx="4.54887" fill="#1B1B1B"/>
</g>
<path d="M360.822 368.113H373.16V365.098H364.418V348.263H360.822V368.113ZM382.62 368.403C386.982 368.403 389.754 365.331 389.754 360.727C389.754 356.114 386.982 353.032 382.62 353.032C378.259 353.032 375.487 356.114 375.487 360.727C375.487 365.331 378.259 368.403 382.62 368.403ZM382.639 365.593C380.226 365.593 379.044 363.441 379.044 360.718C379.044 357.994 380.226 355.813 382.639 355.813C385.014 355.813 386.196 357.994 386.196 360.718C386.196 363.441 385.014 365.593 382.639 365.593ZM397.015 368.413C399.351 368.413 400.747 367.318 401.387 366.068H401.503V368.113H404.876V358.149C404.876 354.214 401.668 353.032 398.828 353.032C395.697 353.032 393.294 354.427 392.518 357.141L395.794 357.606C396.143 356.589 397.132 355.716 398.847 355.716C400.476 355.716 401.367 356.55 401.367 358.013V358.072C401.367 359.08 400.311 359.128 397.684 359.409C394.796 359.719 392.034 360.582 392.034 363.935C392.034 366.862 394.176 368.413 397.015 368.413ZM397.926 365.835C396.463 365.835 395.416 365.166 395.416 363.877C395.416 362.53 396.589 361.968 398.159 361.745C399.08 361.619 400.921 361.386 401.377 361.018V362.772C401.377 364.43 400.039 365.835 397.926 365.835ZM413.928 368.374C416.487 368.374 417.64 366.853 418.193 365.767H418.406V368.113H421.856V348.263H418.338V355.687H418.193C417.66 354.611 416.565 353.032 413.938 353.032C410.497 353.032 407.793 355.726 407.793 360.688C407.793 365.593 410.42 368.374 413.928 368.374ZM414.907 365.496C412.591 365.496 411.37 363.46 411.37 360.669C411.37 357.897 412.571 355.91 414.907 355.91C417.165 355.91 418.406 357.781 418.406 360.669C418.406 363.557 417.146 365.496 414.907 365.496ZM439.799 353.225H436.862V349.659H433.354V353.225H431.241V355.939H433.354V364.216C433.334 367.017 435.37 368.394 438.006 368.316C439.004 368.287 439.693 368.093 440.071 367.967L439.479 365.224C439.285 365.273 438.888 365.36 438.452 365.36C437.57 365.36 436.862 365.05 436.862 363.635V355.939H439.799V353.225ZM449.067 368.403C453.429 368.403 456.201 365.331 456.201 360.727C456.201 356.114 453.429 353.032 449.067 353.032C444.706 353.032 441.934 356.114 441.934 360.727C441.934 365.331 444.706 368.403 449.067 368.403ZM449.087 365.593C446.673 365.593 445.491 363.441 445.491 360.718C445.491 357.994 446.673 355.813 449.087 355.813C451.461 355.813 452.644 357.994 452.644 360.718C452.644 363.441 451.461 365.593 449.087 365.593ZM472.83 368.113C478.878 368.113 482.464 364.371 482.464 358.168C482.464 351.985 478.878 348.263 472.966 348.263H466.104V368.113H472.83ZM469.7 365.001V351.374H472.762C476.794 351.374 478.897 353.623 478.897 358.168C478.897 362.734 476.794 365.001 472.656 365.001H469.7ZM490.01 368.413C492.345 368.413 493.741 367.318 494.381 366.068H494.497V368.113H497.87V358.149C497.87 354.214 494.662 353.032 491.822 353.032C488.691 353.032 486.288 354.427 485.512 357.141L488.788 357.606C489.137 356.589 490.126 355.716 491.841 355.716C493.47 355.716 494.361 356.55 494.361 358.013V358.072C494.361 359.08 493.305 359.128 490.678 359.409C487.79 359.719 485.028 360.582 485.028 363.935C485.028 366.862 487.17 368.413 490.01 368.413ZM490.921 365.835C489.457 365.835 488.41 365.166 488.41 363.877C488.41 362.53 489.583 361.968 491.153 361.745C492.074 361.619 493.916 361.386 494.371 361.018V362.772C494.371 364.43 493.034 365.835 490.921 365.835ZM508.832 353.225H505.895V349.659H502.386V353.225H500.274V355.939H502.386V364.216C502.367 367.017 504.402 368.394 507.039 368.316C508.037 368.287 508.725 368.093 509.103 367.967L508.512 365.224C508.318 365.273 507.921 365.36 507.485 365.36C506.603 365.36 505.895 365.05 505.895 363.635V355.939H508.832V353.225ZM516.05 368.413C518.386 368.413 519.782 367.318 520.421 366.068H520.538V368.113H523.91V358.149C523.91 354.214 520.702 353.032 517.863 353.032C514.732 353.032 512.328 354.427 511.553 357.141L514.829 357.606C515.178 356.589 516.166 355.716 517.882 355.716C519.51 355.716 520.402 356.55 520.402 358.013V358.072C520.402 359.08 519.345 359.128 516.719 359.409C513.831 359.719 511.068 360.582 511.068 363.935C511.068 366.862 513.21 368.413 516.05 368.413ZM516.961 365.835C515.498 365.835 514.451 365.166 514.451 363.877C514.451 362.53 515.624 361.968 517.194 361.745C518.114 361.619 519.956 361.386 520.412 361.018V362.772C520.412 364.43 519.074 365.835 516.961 365.835ZM527.593 368.113H531.044V365.767H531.247C531.8 366.853 532.953 368.374 535.512 368.374C539.021 368.374 541.647 365.593 541.647 360.688C541.647 355.726 538.943 353.032 535.502 353.032C532.876 353.032 531.78 354.611 531.247 355.687H531.102V348.263H527.593V368.113ZM531.034 360.669C531.034 357.781 532.275 355.91 534.533 355.91C536.869 355.91 538.071 357.897 538.071 360.669C538.071 363.46 536.85 365.496 534.533 365.496C532.294 365.496 531.034 363.557 531.034 360.669ZM548.914 368.413C551.25 368.413 552.645 367.318 553.285 366.068H553.401V368.113H556.774V358.149C556.774 354.214 553.566 353.032 550.726 353.032C547.596 353.032 545.192 354.427 544.417 357.141L547.693 357.606C548.042 356.589 549.03 355.716 550.746 355.716C552.374 355.716 553.266 356.55 553.266 358.013V358.072C553.266 359.08 552.209 359.128 549.583 359.409C546.694 359.719 543.932 360.582 543.932 363.935C543.932 366.862 546.074 368.413 548.914 368.413ZM549.825 365.835C548.361 365.835 547.315 365.166 547.315 363.877C547.315 362.53 548.487 361.968 550.058 361.745C550.978 361.619 552.82 361.386 553.275 361.018V362.772C553.275 364.43 551.938 365.835 549.825 365.835ZM572.069 357.16C571.584 354.641 569.568 353.032 566.079 353.032C562.493 353.032 560.05 354.796 560.06 357.548C560.05 359.719 561.388 361.154 564.247 361.745L566.786 362.278C568.153 362.578 568.793 363.131 568.793 363.974C568.793 364.992 567.688 365.757 566.021 365.757C564.412 365.757 563.365 365.06 563.064 363.722L559.643 364.052C560.079 366.785 562.376 368.403 566.03 368.403C569.752 368.403 572.379 366.475 572.388 363.654C572.379 361.532 571.012 360.233 568.201 359.622L565.662 359.08C564.15 358.74 563.549 358.217 563.559 357.354C563.549 356.346 564.664 355.649 566.127 355.649C567.746 355.649 568.599 356.531 568.87 357.509L572.069 357.16ZM581.872 368.403C585.342 368.403 587.726 366.707 588.347 364.119L585.071 363.751C584.596 365.011 583.433 365.67 581.921 365.67C579.653 365.67 578.15 364.178 578.121 361.629H588.492V360.553C588.492 355.329 585.352 353.032 581.688 353.032C577.423 353.032 574.642 356.162 574.642 360.756C574.642 365.428 577.385 368.403 581.872 368.403ZM578.131 359.264C578.238 357.364 579.643 355.765 581.736 355.765C583.752 355.765 585.109 357.238 585.129 359.264H578.131Z" fill="white" fill-opacity="0.85"/>
<path d="M297 320.82L297 793.902" stroke="#1B1B1B" stroke-width="5.45864" stroke-linecap="round"/>
<rect x="344.308" y="460.925" width="871.563" height="74.6015" rx="4.54887" fill="#222222"/>
<path d="M407.66 496.265H410.534C410.477 493.479 408.103 491.507 404.593 491.507C401.132 491.507 398.532 493.455 398.54 496.369C398.54 498.736 400.222 500.096 402.935 500.796L404.81 501.279C406.589 501.73 407.765 502.286 407.773 503.565C407.765 504.974 406.428 505.916 404.48 505.916C402.613 505.916 401.164 505.079 401.043 503.348H398.105C398.226 506.624 400.665 508.468 404.505 508.468C408.457 508.468 410.751 506.495 410.759 503.59C410.751 500.732 408.392 499.428 405.913 498.84L404.368 498.454C403.015 498.132 401.55 497.561 401.567 496.184C401.575 494.944 402.685 494.035 404.553 494.035C406.332 494.035 407.507 494.864 407.66 496.265ZM418.766 508.46C421.648 508.46 423.628 507.051 424.143 504.902L421.423 504.596C421.028 505.642 420.062 506.19 418.806 506.19C416.923 506.19 415.675 504.95 415.651 502.833H424.264V501.939C424.264 497.601 421.656 495.693 418.613 495.693C415.072 495.693 412.761 498.293 412.761 502.108C412.761 505.988 415.039 508.46 418.766 508.46ZM415.659 500.869C415.748 499.291 416.915 497.963 418.654 497.963C420.328 497.963 421.455 499.187 421.471 500.869H415.659ZM430.287 508.468C432.227 508.468 433.386 507.558 433.917 506.52H434.014V508.218H436.815V499.943C436.815 496.675 434.151 495.693 431.792 495.693C429.192 495.693 427.196 496.852 426.552 499.106L429.273 499.492C429.563 498.647 430.384 497.923 431.808 497.923C433.161 497.923 433.901 498.615 433.901 499.83V499.879C433.901 500.716 433.024 500.756 430.842 500.99C428.444 501.247 426.15 501.964 426.15 504.749C426.15 507.18 427.928 508.468 430.287 508.468ZM431.044 506.326C429.828 506.326 428.959 505.771 428.959 504.7C428.959 503.582 429.933 503.115 431.237 502.93C432.002 502.825 433.531 502.632 433.909 502.326V503.783C433.909 505.159 432.798 506.326 431.044 506.326ZM439.745 508.218H442.659V500.949C442.659 499.38 443.842 498.269 445.444 498.269C445.935 498.269 446.547 498.357 446.796 498.438V495.757C446.531 495.709 446.072 495.677 445.75 495.677C444.333 495.677 443.15 496.482 442.699 497.915H442.57V495.854H439.745V508.218ZM453.616 508.46C456.723 508.46 458.704 506.616 458.913 503.992H456.128C455.878 505.32 454.92 506.085 453.64 506.085C451.821 506.085 450.646 504.564 450.646 502.036C450.646 499.541 451.845 498.044 453.64 498.044C455.041 498.044 455.902 498.945 456.128 500.136H458.913C458.712 497.456 456.619 495.693 453.6 495.693C449.978 495.693 447.692 498.309 447.692 502.084C447.692 505.827 449.922 508.46 453.616 508.46ZM464.219 500.974C464.219 499.187 465.33 498.156 466.892 498.156C468.421 498.156 469.323 499.13 469.323 500.796V508.218H472.237V500.346C472.237 497.359 470.546 495.693 467.979 495.693C466.079 495.693 464.871 496.554 464.3 497.955H464.155V491.733H461.306V508.218H464.219V500.974ZM486.303 508.46C489.185 508.46 491.165 507.051 491.68 504.902L488.959 504.596C488.565 505.642 487.599 506.19 486.343 506.19C484.46 506.19 483.212 504.95 483.188 502.833H491.801V501.939C491.801 497.601 489.193 495.693 486.15 495.693C482.608 495.693 480.298 498.293 480.298 502.108C480.298 505.988 482.576 508.46 486.303 508.46ZM483.196 500.869C483.285 499.291 484.452 497.963 486.19 497.963C487.865 497.963 488.992 499.187 489.008 500.869H483.196ZM496.405 495.854H493.314L496.985 502.036L493.218 508.218H496.309L498.9 503.767L501.517 508.218H504.583L500.792 502.036L504.519 495.854H501.436L498.9 500.418L496.405 495.854ZM506.773 508.218H509.687V495.854H506.773V508.218ZM508.238 494.099C509.164 494.099 509.92 493.391 509.92 492.522C509.92 491.644 509.164 490.936 508.238 490.936C507.304 490.936 506.547 491.644 506.547 492.522C506.547 493.391 507.304 494.099 508.238 494.099ZM518.857 495.854H516.418V492.892H513.504V495.854H511.749V498.108H513.504V504.982C513.488 507.308 515.178 508.451 517.368 508.387C518.197 508.363 518.769 508.202 519.082 508.097L518.591 505.819C518.43 505.86 518.1 505.932 517.738 505.932C517.006 505.932 516.418 505.674 516.418 504.499V498.108H518.857V495.854ZM521.294 508.218H524.208V495.854H521.294V508.218ZM522.759 494.099C523.685 494.099 524.441 493.391 524.441 492.522C524.441 491.644 523.685 490.936 522.759 490.936C521.825 490.936 521.069 491.644 521.069 492.522C521.069 493.391 521.825 494.099 522.759 494.099ZM530.118 500.974C530.118 499.187 531.197 498.156 532.734 498.156C534.24 498.156 535.141 499.146 535.141 500.796V508.218H538.055V500.346C538.063 497.383 536.373 495.693 533.821 495.693C531.97 495.693 530.698 496.579 530.134 497.955H529.989V495.854H527.204V508.218H530.118V500.974ZM546.394 513.112C549.735 513.112 552.198 511.583 552.198 508.419V495.854H549.324V497.899H549.163C548.721 497.005 547.795 495.693 545.613 495.693C542.756 495.693 540.51 497.931 540.51 501.996C540.51 506.029 542.756 508.041 545.605 508.041C547.722 508.041 548.712 506.906 549.163 505.996H549.308V508.339C549.308 510.158 548.101 510.907 546.443 510.907C544.688 510.907 543.915 510.077 543.561 509.353L540.937 509.989C541.468 511.72 543.247 513.112 546.394 513.112ZM546.418 505.755C544.495 505.755 543.48 504.258 543.48 501.98C543.48 499.734 544.478 498.084 546.418 498.084C548.294 498.084 549.324 499.637 549.324 501.98C549.324 504.338 548.278 505.755 546.418 505.755ZM566.981 495.854H564.542V492.892H561.628V495.854H559.873V498.108H561.628V504.982C561.612 507.308 563.302 508.451 565.492 508.387C566.321 508.363 566.892 508.202 567.206 508.097L566.715 505.819C566.554 505.86 566.224 505.932 565.862 505.932C565.129 505.932 564.542 505.674 564.542 504.499V498.108H566.981V495.854ZM572.976 508.468C574.915 508.468 576.075 507.558 576.606 506.52H576.702V508.218H579.504V499.943C579.504 496.675 576.839 495.693 574.481 495.693C571.881 495.693 569.885 496.852 569.241 499.106L571.961 499.492C572.251 498.647 573.072 497.923 574.497 497.923C575.849 497.923 576.59 498.615 576.59 499.83V499.879C576.59 500.716 575.712 500.756 573.531 500.99C571.132 501.247 568.838 501.964 568.838 504.749C568.838 507.18 570.617 508.468 572.976 508.468ZM573.732 506.326C572.517 506.326 571.647 505.771 571.647 504.7C571.647 503.582 572.621 503.115 573.925 502.93C574.69 502.825 576.219 502.632 576.598 502.326V503.783C576.598 505.159 575.487 506.326 573.732 506.326ZM582.562 508.218H585.428V506.27H585.597C586.056 507.172 587.014 508.435 589.139 508.435C592.053 508.435 594.234 506.125 594.234 502.052C594.234 497.931 591.988 495.693 589.131 495.693C586.949 495.693 586.04 497.005 585.597 497.899H585.476V491.733H582.562V508.218ZM585.42 502.036C585.42 499.637 586.45 498.084 588.326 498.084C590.266 498.084 591.264 499.734 591.264 502.036C591.264 504.354 590.25 506.045 588.326 506.045C586.466 506.045 585.42 504.435 585.42 502.036ZM599.625 491.733H596.711V508.218H599.625V491.733ZM608.095 508.46C610.977 508.46 612.957 507.051 613.472 504.902L610.752 504.596C610.357 505.642 609.391 506.19 608.136 506.19C606.252 506.19 605.004 504.95 604.98 502.833H613.593V501.939C613.593 497.601 610.985 495.693 607.942 495.693C604.401 495.693 602.09 498.293 602.09 502.108C602.09 505.988 604.368 508.46 608.095 508.46ZM604.988 500.869C605.077 499.291 606.244 497.963 607.983 497.963C609.657 497.963 610.784 499.187 610.8 500.869H604.988ZM625.83 499.122C625.428 497.029 623.753 495.693 620.856 495.693C617.877 495.693 615.849 497.158 615.857 499.444C615.849 501.247 616.96 502.439 619.334 502.93L621.443 503.372C622.578 503.622 623.109 504.081 623.109 504.781C623.109 505.626 622.192 506.262 620.807 506.262C619.471 506.262 618.602 505.682 618.352 504.572L615.511 504.845C615.873 507.115 617.781 508.46 620.815 508.46C623.906 508.46 626.088 506.858 626.096 504.515C626.088 502.752 624.953 501.674 622.618 501.167L620.51 500.716C619.254 500.434 618.755 500 618.763 499.283C618.755 498.446 619.68 497.866 620.896 497.866C622.24 497.866 622.948 498.599 623.174 499.412L625.83 499.122Z" fill="white" fill-opacity="0.3"/>
<path d="M370.615 574.117C370.126 570.589 367.413 568.542 363.892 568.542C359.744 568.542 356.619 571.566 356.619 576.699C356.619 581.824 359.705 584.856 363.892 584.856C367.668 584.856 370.173 582.414 370.615 579.382L367.715 579.366C367.351 581.227 365.831 582.274 363.931 582.274C361.357 582.274 359.512 580.343 359.512 576.699C359.512 573.117 361.341 571.124 363.939 571.124C365.87 571.124 367.382 572.217 367.715 574.117H370.615ZM380.716 579.63C380.716 581.444 379.421 582.344 378.181 582.344C376.831 582.344 375.932 581.39 375.932 579.878V572.729H373.125V580.312C373.125 583.173 374.753 584.794 377.095 584.794C378.878 584.794 380.135 583.856 380.677 582.522H380.801V584.639H383.523V572.729H380.716V579.63ZM395.822 575.877C395.435 573.861 393.822 572.574 391.031 572.574C388.162 572.574 386.208 573.985 386.215 576.187C386.208 577.924 387.278 579.072 389.565 579.545L391.597 579.971C392.69 580.212 393.202 580.653 393.202 581.328C393.202 582.142 392.318 582.755 390.984 582.755C389.697 582.755 388.859 582.196 388.619 581.126L385.882 581.39C386.231 583.577 388.069 584.872 390.992 584.872C393.969 584.872 396.07 583.329 396.078 581.072C396.07 579.374 394.977 578.335 392.729 577.847L390.697 577.412C389.488 577.141 389.007 576.722 389.015 576.032C389.007 575.226 389.898 574.668 391.069 574.668C392.364 574.668 393.046 575.373 393.264 576.156L395.822 575.877ZM404.34 572.729H401.99V569.876H399.184V572.729H397.493V574.9H399.184V581.522C399.168 583.763 400.796 584.864 402.905 584.802C403.704 584.778 404.255 584.623 404.557 584.523L404.084 582.328C403.929 582.367 403.611 582.437 403.262 582.437C402.556 582.437 401.99 582.189 401.99 581.057V574.9H404.34V572.729ZM411.754 584.872C415.244 584.872 417.461 582.414 417.461 578.731C417.461 575.04 415.244 572.574 411.754 572.574C408.265 572.574 406.048 575.04 406.048 578.731C406.048 582.414 408.265 584.872 411.754 584.872ZM411.77 582.623C409.839 582.623 408.893 580.902 408.893 578.723C408.893 576.544 409.839 574.799 411.77 574.799C413.67 574.799 414.616 576.544 414.616 578.723C414.616 580.902 413.67 582.623 411.77 582.623ZM419.843 584.639H422.65V577.397C422.65 575.931 423.627 574.939 424.837 574.939C426.023 574.939 426.837 575.738 426.837 576.963V584.639H429.59V577.211C429.59 575.869 430.389 574.939 431.745 574.939C432.878 574.939 433.777 575.606 433.777 577.079V584.639H436.592V576.645C436.592 573.985 435.056 572.574 432.87 572.574C431.141 572.574 429.823 573.427 429.295 574.753H429.171C428.714 573.404 427.558 572.574 425.953 572.574C424.356 572.574 423.162 573.396 422.666 574.753H422.526V572.729H419.843V584.639ZM444.712 584.872C447.488 584.872 449.395 583.515 449.891 581.444L447.27 581.15C446.891 582.158 445.96 582.685 444.75 582.685C442.936 582.685 441.734 581.491 441.711 579.452H450.008V578.591C450.008 574.412 447.495 572.574 444.564 572.574C441.153 572.574 438.927 575.079 438.927 578.754C438.927 582.491 441.122 584.872 444.712 584.872ZM441.719 577.56C441.804 576.04 442.928 574.761 444.603 574.761C446.216 574.761 447.301 575.939 447.317 577.56H441.719ZM452.382 584.639H455.189V577.637C455.189 576.125 456.329 575.055 457.872 575.055C458.345 575.055 458.934 575.141 459.174 575.218V572.636C458.919 572.59 458.477 572.559 458.166 572.559C456.802 572.559 455.662 573.334 455.228 574.714H455.104V572.729H452.382V584.639Z" fill="white" fill-opacity="0.8"/>
<path d="M356.792 630.718H359.668V624.902H362.599L365.716 630.718H368.926L365.491 624.421C367.36 623.669 368.345 622.072 368.345 619.917C368.345 616.885 366.391 614.838 362.746 614.838H356.792V630.718ZM359.668 622.514V617.242H362.305C364.452 617.242 365.414 618.226 365.414 619.917C365.414 621.607 364.452 622.514 362.32 622.514H359.668ZM375.971 630.95C378.746 630.95 380.654 629.593 381.15 627.523L378.529 627.228C378.149 628.236 377.219 628.764 376.009 628.764C374.195 628.764 372.993 627.57 372.97 625.53H381.266V624.67C381.266 620.49 378.754 618.653 375.823 618.653C372.412 618.653 370.186 621.157 370.186 624.832C370.186 628.57 372.381 630.95 375.971 630.95ZM372.978 623.638C373.063 622.119 374.187 620.839 375.862 620.839C377.475 620.839 378.56 622.018 378.576 623.638H372.978ZM393.938 618.808H390.953L388.208 627.655H388.084L385.347 618.808H382.354L386.595 630.718H389.697L393.938 618.808ZM400.748 630.95C403.523 630.95 405.431 629.593 405.927 627.523L403.306 627.228C402.926 628.236 401.996 628.764 400.786 628.764C398.972 628.764 397.77 627.57 397.747 625.53H406.043V624.67C406.043 620.49 403.531 618.653 400.6 618.653C397.189 618.653 394.963 621.157 394.963 624.832C394.963 628.57 397.158 630.95 400.748 630.95ZM397.755 623.638C397.84 622.119 398.964 620.839 400.639 620.839C402.252 620.839 403.337 622.018 403.353 623.638H397.755ZM411.225 623.739C411.225 622.018 412.264 621.025 413.745 621.025C415.195 621.025 416.063 621.979 416.063 623.569V630.718H418.87V623.134C418.878 620.281 417.25 618.653 414.792 618.653C413.008 618.653 411.783 619.506 411.24 620.831H411.101V618.808H408.418V630.718H411.225V623.739ZM429.314 625.709C429.314 627.523 428.02 628.422 426.779 628.422C425.43 628.422 424.53 627.469 424.53 625.957V618.808H421.723V626.391C421.723 629.252 423.352 630.873 425.693 630.873C427.477 630.873 428.733 629.934 429.276 628.601H429.4V630.718H432.121V618.808H429.314V625.709ZM440.28 630.95C443.056 630.95 444.963 629.593 445.46 627.523L442.839 627.228C442.459 628.236 441.529 628.764 440.319 628.764C438.505 628.764 437.303 627.57 437.279 625.53H445.576V624.67C445.576 620.49 443.064 618.653 440.133 618.653C436.721 618.653 434.496 621.157 434.496 624.832C434.496 628.57 436.69 630.95 440.28 630.95ZM437.287 623.638C437.372 622.119 438.497 620.839 440.172 620.839C441.784 620.839 442.87 622.018 442.885 623.638H437.287Z" fill="white" fill-opacity="0.8"/>
<path d="M358.916 660.327H355.76L361.351 676.206H364.902L370.5 660.327H367.337L363.212 672.826H363.049L358.916 660.327ZM376.461 676.439C379.237 676.439 381.144 675.082 381.64 673.012L379.02 672.717C378.64 673.725 377.709 674.252 376.5 674.252C374.685 674.252 373.483 673.058 373.46 671.019H381.757V670.158C381.757 665.979 379.245 664.141 376.314 664.141C372.902 664.141 370.677 666.646 370.677 670.321C370.677 674.059 372.871 676.439 376.461 676.439ZM373.468 669.127C373.553 667.607 374.678 666.328 376.352 666.328C377.965 666.328 379.051 667.507 379.066 669.127H373.468ZM386.938 669.228C386.938 667.507 387.977 666.514 389.458 666.514C390.908 666.514 391.777 667.468 391.777 669.057V676.206H394.583V668.623C394.591 665.77 392.963 664.141 390.505 664.141C388.722 664.141 387.496 664.994 386.954 666.32H386.814V664.297H384.131V676.206H386.938V669.228ZM401.856 676.416C403.903 676.416 404.826 675.198 405.268 674.33H405.439V676.206H408.199V660.327H405.384V666.266H405.268C404.842 665.405 403.965 664.141 401.864 664.141C399.112 664.141 396.948 666.297 396.948 670.267C396.948 674.19 399.05 676.416 401.856 676.416ZM402.64 674.113C400.786 674.113 399.809 672.484 399.809 670.251C399.809 668.034 400.771 666.444 402.64 666.444C404.446 666.444 405.439 667.941 405.439 670.251C405.439 672.562 404.431 674.113 402.64 674.113ZM416.385 676.439C419.874 676.439 422.092 673.981 422.092 670.298C422.092 666.607 419.874 664.141 416.385 664.141C412.896 664.141 410.678 666.607 410.678 670.298C410.678 673.981 412.896 676.439 416.385 676.439ZM416.401 674.19C414.47 674.19 413.524 672.469 413.524 670.29C413.524 668.111 414.47 666.367 416.401 666.367C418.3 666.367 419.246 668.111 419.246 670.29C419.246 672.469 418.3 674.19 416.401 674.19ZM424.474 676.206H427.281V669.205C427.281 667.693 428.421 666.623 429.964 666.623C430.437 666.623 431.026 666.708 431.266 666.785V664.203C431.011 664.157 430.569 664.126 430.258 664.126C428.894 664.126 427.754 664.901 427.32 666.281H427.196V664.297H424.474V676.206ZM442.544 667.445C442.157 665.429 440.544 664.141 437.752 664.141C434.884 664.141 432.93 665.553 432.937 667.755C432.93 669.492 434 670.639 436.287 671.112L438.318 671.539C439.412 671.779 439.923 672.221 439.923 672.895C439.923 673.71 439.04 674.322 437.706 674.322C436.419 674.322 435.581 673.764 435.341 672.694L432.604 672.957C432.953 675.144 434.79 676.439 437.714 676.439C440.691 676.439 442.792 674.896 442.8 672.64C442.792 670.941 441.699 669.902 439.45 669.414L437.419 668.98C436.209 668.708 435.729 668.29 435.736 667.6C435.729 666.793 436.62 666.235 437.791 666.235C439.086 666.235 439.768 666.941 439.986 667.724L442.544 667.445Z" fill="white" fill-opacity="0.8"/>
<rect x="1208.59" y="550.083" width="8.14077" height="140.105" rx="4.07038" fill="#3E3E3E"/>
<rect x="1209.76" y="603.871" width="5.81483" height="15.0113" rx="2.90742" fill="#1B1B1B"/>
<path d="M370.54 508.385C375.23 508.385 379.031 504.583 379.031 499.893C379.031 495.204 375.23 491.402 370.54 491.402C365.85 491.402 362.049 495.204 362.049 499.893C362.049 504.583 365.85 508.385 370.54 508.385Z" stroke="white" stroke-width="2.12281" stroke-linecap="round" stroke-linejoin="round"/>
<path d="M381.154 510.507L376.537 505.89" stroke="white" stroke-width="2.12281" stroke-linecap="round" stroke-linejoin="round"/>
<circle cx="327.932" cy="359.03" r="16.3759" fill="white" fill-opacity="0.03"/>
<path d="M320.654 355.391L327.932 362.669L335.21 355.391" stroke="white" stroke-opacity="0.8" stroke-width="1.81955" stroke-linecap="round" stroke-linejoin="round"/>
<rect x="344.308" y="395.421" width="200.15" height="45.4887" rx="4.54887" fill="white" fill-opacity="0.03"/>
<path d="M407.166 410.258H404.793V421.92H404.646L396.566 410.258H394.349V426.138H396.745V414.492H396.892L404.964 426.138H407.166V410.258ZM415.608 426.378C418.205 426.378 420.043 425.099 420.57 423.16L418.376 422.765C417.957 423.889 416.949 424.463 415.631 424.463C413.646 424.463 412.312 423.176 412.25 420.881H420.717V420.059C420.717 415.756 418.143 414.073 415.445 414.073C412.126 414.073 409.94 416.601 409.94 420.261C409.94 423.959 412.095 426.378 415.608 426.378ZM412.258 419.144C412.351 417.454 413.576 415.988 415.46 415.988C417.259 415.988 418.438 417.322 418.446 419.144H412.258ZM425.85 426.138H428.208L430.627 417.539H430.805L433.224 426.138H435.589L439.086 414.228H436.69L434.372 422.936H434.255L431.929 414.228H429.533L427.192 422.974H427.075L424.742 414.228H422.346L425.85 426.138ZM452.624 414.228H450.182V411.375H447.863V414.228H446.119V416.089H447.863V423.122C447.856 425.285 449.507 426.332 451.337 426.293C452.074 426.285 452.57 426.146 452.841 426.045L452.423 424.13C452.267 424.161 451.981 424.231 451.608 424.231C450.856 424.231 450.182 423.982 450.182 422.641V416.089H452.624V414.228ZM458.655 426.402C460.624 426.402 461.733 425.401 462.175 424.51H462.268V426.138H464.532V418.229C464.532 414.763 461.803 414.073 459.911 414.073C457.755 414.073 455.77 414.942 454.995 417.113L457.174 417.609C457.515 416.764 458.383 415.95 459.942 415.95C461.438 415.95 462.206 416.733 462.206 418.082V418.136C462.206 418.981 461.337 418.966 459.197 419.214C456.941 419.477 454.63 420.067 454.63 422.773C454.63 425.114 456.39 426.402 458.655 426.402ZM459.159 424.541C457.848 424.541 456.902 423.951 456.902 422.804C456.902 421.563 458.003 421.121 459.345 420.943C460.097 420.842 461.88 420.641 462.214 420.307V421.842C462.214 423.254 461.089 424.541 459.159 424.541ZM467.806 426.138H470.07V424.285H470.264C470.683 425.045 471.536 426.371 473.707 426.371C476.591 426.371 478.684 424.06 478.684 420.206C478.684 416.345 476.56 414.073 473.683 414.073C471.473 414.073 470.675 415.422 470.264 416.159H470.124V410.258H467.806V426.138ZM470.078 420.183C470.078 417.694 471.163 416.043 473.187 416.043C475.288 416.043 476.343 417.818 476.343 420.183C476.343 422.571 475.257 424.393 473.187 424.393C471.194 424.393 470.078 422.688 470.078 420.183ZM483.606 410.258H481.288V426.138H483.606V410.258ZM491.858 426.378C494.456 426.378 496.293 425.099 496.821 423.16L494.626 422.765C494.207 423.889 493.2 424.463 491.881 424.463C489.896 424.463 488.563 423.176 488.501 420.881H496.968V420.059C496.968 415.756 494.394 414.073 491.695 414.073C488.377 414.073 486.19 416.601 486.19 420.261C486.19 423.959 488.346 426.378 491.858 426.378ZM488.508 419.144C488.602 417.454 489.827 415.988 491.711 415.988C493.51 415.988 494.688 417.322 494.696 419.144H488.508Z" fill="white" fill-opacity="0.8"/>
<rect x="551.737" y="395.421" width="214.707" height="45.4887" rx="4.54887" fill="white" fill-opacity="0.3"/>
<path d="M591.411 426.138H601.46V424.075H593.807V419.214H600.847V417.159H593.807V412.321H601.367V410.258H591.411V426.138ZM606.211 414.228H603.668L607.327 420.183L603.621 426.138H606.164L608.839 421.687L611.522 426.138H614.058L610.313 420.183L614.027 414.228H611.491L608.839 418.865L606.211 414.228ZM616.407 426.138H618.725V414.228H616.407V426.138ZM617.578 412.391C618.377 412.391 619.043 411.77 619.043 411.01C619.043 410.25 618.377 409.622 617.578 409.622C616.771 409.622 616.112 410.25 616.112 411.01C616.112 411.77 616.771 412.391 617.578 412.391ZM630.769 417.136C630.288 415.283 628.838 414.073 626.264 414.073C623.573 414.073 621.666 415.492 621.666 417.601C621.666 419.291 622.69 420.416 624.923 420.912L626.939 421.354C628.086 421.61 628.621 422.121 628.621 422.866C628.621 423.789 627.636 424.51 626.117 424.51C624.729 424.51 623.837 423.913 623.558 422.742L621.317 423.083C621.705 425.192 623.457 426.378 626.132 426.378C629.009 426.378 631.002 424.851 631.002 422.695C631.002 421.013 629.932 419.974 627.745 419.47L625.853 419.036C624.543 418.725 623.977 418.283 623.984 417.477C623.977 416.562 624.969 415.911 626.287 415.911C627.729 415.911 628.396 416.709 628.668 417.508L630.769 417.136ZM639.11 414.228H636.668V411.375H634.349V414.228H632.605V416.089H634.349V423.122C634.341 425.285 635.993 426.332 637.823 426.293C638.56 426.285 639.056 426.146 639.327 426.045L638.908 424.13C638.753 424.161 638.466 424.231 638.094 424.231C637.342 424.231 636.668 423.982 636.668 422.641V416.089H639.11V414.228ZM641.675 426.138H643.993V414.228H641.675V426.138ZM642.845 412.391C643.644 412.391 644.311 411.77 644.311 411.01C644.311 410.25 643.644 409.622 642.845 409.622C642.039 409.622 641.38 410.25 641.38 411.01C641.38 411.77 642.039 412.391 642.845 412.391ZM649.43 419.067C649.43 417.167 650.593 416.081 652.206 416.081C653.78 416.081 654.734 417.113 654.734 418.842V426.138H657.052V418.563C657.052 415.616 655.432 414.073 652.997 414.073C651.206 414.073 650.035 414.903 649.485 416.167H649.337V414.228H647.112V426.138H649.43V419.067ZM665.155 430.852C668.187 430.852 670.528 429.464 670.528 426.402V414.228H668.256V416.159H668.086C667.675 415.422 666.853 414.073 664.635 414.073C661.759 414.073 659.642 416.345 659.642 420.137C659.642 423.936 661.805 425.96 664.62 425.96C666.806 425.96 667.652 424.727 668.07 423.967H668.218V426.309C668.218 428.177 666.938 428.984 665.178 428.984C663.247 428.984 662.495 428.014 662.084 427.332L660.092 428.154C660.72 429.612 662.309 430.852 665.155 430.852ZM665.132 424.037C663.061 424.037 661.984 422.447 661.984 420.106C661.984 417.818 663.038 416.043 665.132 416.043C667.155 416.043 668.241 417.694 668.241 420.106C668.241 422.563 667.132 424.037 665.132 424.037ZM684.975 414.228H682.533V411.375H680.215V414.228H678.47V416.089H680.215V423.122C680.207 425.285 681.858 426.332 683.688 426.293C684.425 426.285 684.921 426.146 685.193 426.045L684.774 424.13C684.619 424.161 684.332 424.231 683.96 424.231C683.208 424.231 682.533 423.982 682.533 422.641V416.089H684.975V414.228ZM691.006 426.402C692.975 426.402 694.084 425.401 694.526 424.51H694.619V426.138H696.883V418.229C696.883 414.763 694.154 414.073 692.262 414.073C690.106 414.073 688.122 414.942 687.346 417.113L689.525 417.609C689.866 416.764 690.735 415.95 692.293 415.95C693.79 415.95 694.557 416.733 694.557 418.082V418.136C694.557 418.981 693.689 418.966 691.549 419.214C689.292 419.477 686.982 420.067 686.982 422.773C686.982 425.114 688.742 426.402 691.006 426.402ZM691.51 424.541C690.2 424.541 689.254 423.951 689.254 422.804C689.254 421.563 690.355 421.121 691.696 420.943C692.448 420.842 694.231 420.641 694.565 420.307V421.842C694.565 423.254 693.441 424.541 691.51 424.541ZM700.157 426.138H702.421V424.285H702.615C703.034 425.045 703.887 426.371 706.058 426.371C708.942 426.371 711.036 424.06 711.036 420.206C711.036 416.345 708.911 414.073 706.035 414.073C703.825 414.073 703.026 415.422 702.615 416.159H702.476V410.258H700.157V426.138ZM702.429 420.183C702.429 417.694 703.515 416.043 705.538 416.043C707.64 416.043 708.694 417.818 708.694 420.183C708.694 422.571 707.609 424.393 705.538 424.393C703.546 424.393 702.429 422.688 702.429 420.183ZM715.958 410.258H713.639V426.138H715.958V410.258ZM724.209 426.378C726.807 426.378 728.645 425.099 729.172 423.16L726.978 422.765C726.559 423.889 725.551 424.463 724.233 424.463C722.248 424.463 720.914 423.176 720.852 420.881H729.319V420.059C729.319 415.756 726.745 414.073 724.047 414.073C720.728 414.073 718.541 416.601 718.541 420.261C718.541 423.959 720.697 426.378 724.209 426.378ZM720.86 419.144C720.953 417.454 722.178 415.988 724.062 415.988C725.861 415.988 727.04 417.322 727.047 419.144H720.86Z" fill="white" fill-opacity="0.8"/>
<rect x="1052.11" y="712.022" width="163.759" height="61.8646" rx="4.54887" fill="#3CCF91"/>
<path d="M1107.73 752.037H1118.57V749.706H1110.43V734.09H1107.73V752.037ZM1127.11 752.309C1130.91 752.309 1133.39 749.531 1133.39 745.368C1133.39 741.18 1130.91 738.402 1127.11 738.402C1123.32 738.402 1120.84 741.18 1120.84 745.368C1120.84 749.531 1123.32 752.309 1127.11 752.309ZM1127.12 750.109C1124.64 750.109 1123.49 747.945 1123.49 745.36C1123.49 742.783 1124.64 740.592 1127.12 740.592C1129.59 740.592 1130.74 742.783 1130.74 745.36C1130.74 747.945 1129.59 750.109 1127.12 750.109ZM1140.23 752.335C1142.46 752.335 1143.71 751.205 1144.21 750.197H1144.31V752.037H1146.87V743.099C1146.87 739.182 1143.79 738.402 1141.65 738.402C1139.21 738.402 1136.97 739.383 1136.09 741.837L1138.56 742.398C1138.94 741.442 1139.92 740.522 1141.69 740.522C1143.38 740.522 1144.24 741.407 1144.24 742.932V742.994C1144.24 743.949 1143.26 743.931 1140.84 744.212C1138.29 744.51 1135.68 745.176 1135.68 748.234C1135.68 750.881 1137.67 752.335 1140.23 752.335ZM1140.8 750.232C1139.32 750.232 1138.25 749.566 1138.25 748.269C1138.25 746.867 1139.49 746.367 1141.01 746.166C1141.86 746.052 1143.88 745.824 1144.25 745.447V747.182C1144.25 748.777 1142.98 750.232 1140.8 750.232ZM1155.4 752.3C1157.86 752.3 1158.82 750.802 1159.29 749.943H1159.51V752.037H1162.07V734.09H1159.45V740.759H1159.29C1158.82 739.926 1157.93 738.402 1155.42 738.402C1152.17 738.402 1149.78 740.969 1149.78 745.333C1149.78 749.689 1152.13 752.3 1155.4 752.3ZM1155.98 750.066C1153.64 750.066 1152.42 748.006 1152.42 745.307C1152.42 742.634 1153.61 740.627 1155.98 740.627C1158.27 740.627 1159.49 742.494 1159.49 745.307C1159.49 748.138 1158.24 750.066 1155.98 750.066Z" fill="white"/>
</g>
<rect x="297.5" y="319.5" width="951" height="474" stroke="#161616"/>
</g>
</g>
<defs>
<filter id="filter0_d" x="-56" y="-57" width="736" height="573" filterUnits="userSpaceOnUse" color-interpolation-filters="sRGB">
<feFlood flood-opacity="0" result="BackgroundImageFix"/>
<feColorMatrix in="SourceAlpha" type="matrix" values="0 0 0 0 0 0 0 0 0 0 0 0 0 0 0 0 0 0 127 0" result="hardAlpha"/>
<feOffset dx="4" dy="4"/>
<feGaussianBlur stdDeviation="25"/>
<feColorMatrix type="matrix" values="0 0 0 0 0 0 0 0 0 0 0 0 0 0 0 0 0 0 0.5 0"/>
<feBlend mode="normal" in2="BackgroundImageFix" result="effect1_dropShadow"/>
<feBlend mode="normal" in="SourceGraphic" in2="effect1_dropShadow" result="shape"/>
</filter>
<filter id="filter1_d" x="-119.301" y="296" width="277.83" height="202.602" filterUnits="userSpaceOnUse" color-interpolation-filters="sRGB">
<feFlood flood-opacity="0" result="BackgroundImageFix"/>
<feColorMatrix in="SourceAlpha" type="matrix" values="0 0 0 0 0 0 0 0 0 0 0 0 0 0 0 0 0 0 127 0" result="hardAlpha"/>
<feOffset dy="2.30087"/>
<feGaussianBlur stdDeviation="1.15044"/>
<feColorMatrix type="matrix" values="0 0 0 0 0 0 0 0 0 0 0 0 0 0 0 0 0 0 0.25 0"/>
<feBlend mode="normal" in2="BackgroundImageFix" result="effect1_dropShadow"/>
<feBlend mode="normal" in="SourceGraphic" in2="effect1_dropShadow" result="shape"/>
</filter>
<filter id="filter2_d" x="251" y="273" width="1052" height="575" filterUnits="userSpaceOnUse" color-interpolation-filters="sRGB">
<feFlood flood-opacity="0" result="BackgroundImageFix"/>
<feColorMatrix in="SourceAlpha" type="matrix" values="0 0 0 0 0 0 0 0 0 0 0 0 0 0 0 0 0 0 127 0" result="hardAlpha"/>
<feOffset dx="4" dy="4"/>
<feGaussianBlur stdDeviation="25"/>
<feColorMatrix type="matrix" values="0 0 0 0 0 0 0 0 0 0 0 0 0 0 0 0 0 0 0.5 0"/>
<feBlend mode="normal" in2="BackgroundImageFix" result="effect1_dropShadow"/>
<feBlend mode="normal" in="SourceGraphic" in2="effect1_dropShadow" result="shape"/>
</filter>
<filter id="filter3_d" x="215.12" y="235.301" width="1131.76" height="660.496" filterUnits="userSpaceOnUse" color-interpolation-filters="sRGB">
<feFlood flood-opacity="0" result="BackgroundImageFix"/>
<feColorMatrix in="SourceAlpha" type="matrix" values="0 0 0 0 0 0 0 0 0 0 0 0 0 0 0 0 0 0 127 0" result="hardAlpha"/>
<feOffset dx="7.27819" dy="7.27819"/>
<feGaussianBlur stdDeviation="45.4887"/>
<feColorMatrix type="matrix" values="0 0 0 0 0 0 0 0 0 0 0 0 0 0 0 0 0 0 0.5 0"/>
<feBlend mode="normal" in2="BackgroundImageFix" result="effect1_dropShadow"/>
<feBlend mode="normal" in="SourceGraphic" in2="effect1_dropShadow" result="shape"/>
</filter>
<linearGradient id="paint0_linear" x1="1236" y1="396" x2="-1.80255e-05" y2="396" gradientUnits="userSpaceOnUse">
<stop stop-color="#3CCF91"/>
<stop offset="1" stop-color="#1775E1"/>
</linearGradient>
<clipPath id="clip0">
<rect width="1236" height="792" fill="white"/>
</clipPath>
<clipPath id="clip1">
<rect x="-10" y="-11" width="636" height="473" fill="white"/>
</clipPath>
<clipPath id="clip2">
<rect x="297" y="319" width="952" height="475" fill="white"/>
</clipPath>
</defs>
</svg>
